<?xml version="1.0" encoding="utf-8"?>
<!-- Generator: Adobe Illustrator 16.0.0, SVG Export Plug-In . SVG Version: 6.00 Build 0)  -->
<!DOCTYPE svg PUBLIC "-//W3C//DTD SVG 1.1//EN" "http://www.w3.org/Graphics/SVG/1.1/DTD/svg11.dtd">
<svg version="1.1" id="Layer_1" xmlns="http://www.w3.org/2000/svg" xmlns:xlink="http://www.w3.org/1999/xlink" x="0px" y="0px"
	 width="100px" height="100px" viewBox="0 0 100 100" enable-background="new 0 0 100 100" xml:space="preserve">
<g>
	<path fill="#0957A4" d="M57.525,56.989c-4.312-0.551-8.525-2.256-11.834-4.763l3.91-5.717c2.709,2.056,5.215,3.46,8.174,4.062
		v-7.972c-7.221-1.956-10.78-4.664-10.78-10.631v-0.1c0-5.516,4.212-9.177,10.53-9.828V19.13h5.215v3.059
		c3.561,0.451,6.568,1.754,9.326,3.66l-3.359,5.867c-2.006-1.354-4.162-2.407-6.219-2.958v7.621
		c7.623,2.056,10.883,5.115,10.883,10.731v0.1c0,5.617-4.312,9.227-10.631,9.879v4.964h-5.215V56.989z M57.775,35.126v-6.82
		c-2.457,0.301-3.459,1.504-3.459,3.109v0.101C54.316,33.12,55.018,34.124,57.775,35.126z M62.488,43.801v7.021
		c2.357-0.352,3.561-1.404,3.561-3.21v-0.1C66.049,45.857,65.197,44.804,62.488,43.801z M9.178,90.821
		c2.135,2.139,5.603,2.139,7.741,0l21.167-21.166c-3.104-1.998-5.744-4.639-7.74-7.741L9.178,83.08
		C7.039,85.219,7.039,88.687,9.178,90.821z M59.768,72.892c-18.009,0-32.66-14.65-32.66-32.658c0-18.01,14.651-32.661,32.66-32.661
		c18.008,0,32.659,14.651,32.659,32.661C92.427,58.242,77.775,72.892,59.768,72.892z M59.768,11.896
		c-15.625,0-28.336,12.712-28.336,28.338c0,15.624,12.711,28.334,28.336,28.334s28.336-12.711,28.336-28.334
		C88.104,24.608,75.393,11.896,59.768,11.896z"/>
</g>
</svg>
