<?xml version="1.0" encoding="utf-8"?>
<!-- Generator: Adobe Illustrator 21.0.0, SVG Export Plug-In . SVG Version: 6.00 Build 0)  -->
<svg version="1.1" id="Layer_1" xmlns="http://www.w3.org/2000/svg" xmlns:xlink="http://www.w3.org/1999/xlink" x="0px" y="0px"
	 viewBox="0 0 173.7 79.4" style="enable-background:new 0 0 173.7 79.4;" xml:space="preserve">
<style type="text/css">
	.st0{fill:#165CA2;}
	.st1{fill:#808083;}
</style>
<g>
	<g>
		<g>
			<path class="st0" d="M44.8,0h-40C2.2,0,0,2.2,0,4.9v69.6c0,2.7,2.2,4.9,4.9,4.9h48.9c2.7,0,4.9-2.2,4.9-4.9V15.1L44.8,0z
				 M54.6,74.5c0,0.4-0.4,0.8-0.8,0.8H4.9c-0.4,0-0.8-0.4-0.8-0.8V4.9c0-0.4,0.4-0.8,0.8-0.8h37v11.8c0,1.1,0.9,2,2,2h10.7V74.5z
				 M11.3,24.7H46c0.8,0,1.5,0.7,1.5,1.5c0,0.8-0.7,1.5-1.5,1.5H11.3c-0.8,0-1.5-0.7-1.5-1.5C9.8,25.4,10.5,24.7,11.3,24.7z
				 M47.5,36.5c0,0.8-0.7,1.5-1.5,1.5H11.3c-0.8,0-1.5-0.7-1.5-1.5c0-0.8,0.7-1.5,1.5-1.5H46C46.9,35,47.5,35.6,47.5,36.5z
				 M47.5,46.4c0,0.8-0.7,1.5-1.5,1.5H11.3c-0.8,0-1.5-0.7-1.5-1.5c0-0.8,0.7-1.5,1.5-1.5H46C46.9,44.9,47.5,45.6,47.5,46.4z
				 M47.5,56.6c0,0.8-0.7,1.5-1.5,1.5H11.3c-0.8,0-1.5-0.7-1.5-1.5c0-0.8,0.7-1.5,1.5-1.5H46C46.9,55,47.5,55.7,47.5,56.6z"/>
		</g>
	</g>
	<g>
		<path class="st1" d="M79.3,18.2h5.5c3.3,0,5.5,1.8,5.5,4.7v0c0,3.2-2.7,4.8-5.8,4.8H81V33h-1.7V18.2z M84.6,26.2
			c2.5,0,4.1-1.3,4.1-3.3v0c0-2.1-1.6-3.2-4-3.2H81v6.5H84.6z"/>
		<path class="st1" d="M92.8,17.6h1.6V33h-1.6V17.6z"/>
		<path class="st1" d="M96.8,29.8L96.8,29.8c0-2.4,1.9-3.6,4.7-3.6c1.4,0,2.4,0.2,3.3,0.5v-0.3c0-1.9-1.2-3-3.2-3
			c-1.3,0-2.3,0.3-3.3,0.8l-0.5-1.3c1.2-0.5,2.4-0.9,4-0.9c1.5,0,2.8,0.4,3.5,1.2c0.8,0.8,1.1,1.8,1.1,3.2V33h-1.6v-1.6
			c-0.8,1-2,1.9-3.9,1.9C98.8,33.2,96.8,32.1,96.8,29.8z M104.9,29v-1c-0.8-0.2-1.9-0.5-3.2-0.5c-2,0-3.2,0.9-3.2,2.2v0
			c0,1.4,1.3,2.2,2.7,2.2C103.2,31.9,104.9,30.7,104.9,29z"/>
		<path class="st1" d="M109.4,22.1h1.6V24c0.7-1.2,1.9-2.1,3.7-2.1c2.6,0,4.2,1.8,4.2,4.4V33h-1.6v-6.4c0-2-1.1-3.3-3-3.3
			c-1.9,0-3.3,1.4-3.3,3.4V33h-1.6V22.1z"/>
		<path class="st1" d="M126.7,31.8c1.5,0,2.6-0.6,3.4-1.5l1,0.9c-1.1,1.2-2.4,2.1-4.5,2.1c-3,0-5.5-2.3-5.5-5.7
			c0-3.2,2.2-5.7,5.2-5.7c3.2,0,5.1,2.6,5.1,5.8c0,0.1,0,0.3,0,0.6h-8.7C123.1,30.5,124.8,31.8,126.7,31.8z M129.9,26.9
			c-0.2-2-1.3-3.7-3.5-3.7c-1.9,0-3.3,1.6-3.6,3.7H129.9z"/>
		<path class="st1" d="M132.9,31.6l0.8-1.2c1.2,0.9,2.5,1.4,3.8,1.4c1.3,0,2.3-0.7,2.3-1.7v0c0-1.1-1.3-1.5-2.7-1.9
			c-1.7-0.5-3.6-1.1-3.6-3.1v0c0-1.9,1.6-3.1,3.7-3.1c1.3,0,2.8,0.5,3.9,1.2l-0.7,1.2c-1-0.7-2.2-1.1-3.2-1.1
			c-1.3,0-2.1,0.7-2.1,1.6v0c0,1,1.4,1.4,2.8,1.9c1.7,0.5,3.5,1.2,3.5,3.1v0c0,2.1-1.7,3.3-3.9,3.3
			C135.9,33.2,134.2,32.6,132.9,31.6z"/>
		<path class="st1" d="M149,35.9l0.5-1.3c0.5,0.3,1,0.4,1.7,0.4c1,0,1.6-0.5,2.2-2.1l-5-10.9h1.8l4,9.1l3.5-9.1h1.7L155,33.4
			c-0.9,2.3-2,3.1-3.6,3.1C150.5,36.4,149.8,36.3,149,35.9z"/>
		<path class="st1" d="M78.3,48.7L78.3,48.7c0-3.1,2.4-5.8,5.6-5.8c2.1,0,3.4,0.9,4.4,1.9l-1.1,1.1c-0.9-0.9-1.8-1.6-3.3-1.6
			c-2.2,0-3.9,1.9-3.9,4.2v0c0,2.4,1.7,4.3,4,4.3c1.4,0,2.5-0.7,3.3-1.6l1,1c-1.1,1.2-2.4,2.1-4.5,2.1
			C80.7,54.4,78.3,51.8,78.3,48.7z"/>
		<path class="st1" d="M89.6,48.7L89.6,48.7c0-3.1,2.4-5.8,5.7-5.8c3.3,0,5.7,2.6,5.7,5.7v0c0,3.1-2.4,5.7-5.7,5.7
			C92,54.4,89.6,51.8,89.6,48.7z M99.3,48.7L99.3,48.7c0-2.4-1.8-4.3-4.1-4.3c-2.4,0-4,1.9-4,4.2v0c0,2.3,1.7,4.3,4,4.3
			C97.6,52.9,99.3,51,99.3,48.7z"/>
		<path class="st1" d="M105,52.1v2.1h-1.6V38.7h1.6v6.7c0.9-1.3,2.2-2.4,4.2-2.4c2.6,0,5.2,2.1,5.2,5.7v0c0,3.6-2.6,5.7-5.2,5.7
			C107.2,54.4,105.8,53.3,105,52.1z M112.7,48.7L112.7,48.7c0-2.6-1.8-4.3-3.8-4.3c-2,0-4,1.7-4,4.2v0c0,2.5,1.9,4.2,4,4.2
			C111,52.9,112.7,51.4,112.7,48.7z"/>
		<path class="st1" d="M121.7,53c1.5,0,2.6-0.6,3.4-1.5l1,0.9c-1.1,1.2-2.4,2.1-4.5,2.1c-3,0-5.5-2.3-5.5-5.7c0-3.2,2.2-5.7,5.2-5.7
			c3.2,0,5.1,2.6,5.1,5.8c0,0.1,0,0.3,0,0.6h-8.7C118.1,51.7,119.8,53,121.7,53z M124.9,48c-0.2-2-1.3-3.7-3.5-3.7
			c-1.9,0-3.3,1.6-3.6,3.7H124.9z"/>
		<path class="st1" d="M128.9,43.2h1.6v2.9c0.8-1.8,2.4-3.1,4.5-3v1.8h-0.1c-2.4,0-4.3,1.7-4.3,5v4.4h-1.6V43.2z"/>
		<path class="st1" d="M137.5,51.2v-6.6H136v-1.4h1.5v-3.3h1.6v3.3h3.5v1.4h-3.5V51c0,1.3,0.7,1.8,1.8,1.8c0.5,0,1-0.1,1.6-0.4v1.4
			c-0.6,0.3-1.2,0.5-2,0.5C138.8,54.3,137.5,53.5,137.5,51.2z"/>
		<path class="st1" d="M144.8,50v-6.8h1.6v6.4c0,2,1.1,3.3,3,3.3c1.9,0,3.3-1.4,3.3-3.4v-6.3h1.6v10.9h-1.6v-1.9
			c-0.7,1.2-1.9,2.1-3.7,2.1C146.3,54.4,144.8,52.6,144.8,50z"/>
		<path class="st1" d="M157.4,43.2h1.6v2.9c0.8-1.8,2.4-3.1,4.5-3v1.8h-0.1c-2.4,0-4.3,1.7-4.3,5v4.4h-1.6V43.2z"/>
		<path class="st1" d="M164.1,51L164.1,51c0-2.4,1.9-3.6,4.7-3.6c1.4,0,2.4,0.2,3.3,0.5v-0.3c0-1.9-1.2-3-3.2-3
			c-1.3,0-2.3,0.3-3.3,0.8l-0.5-1.3c1.2-0.5,2.4-0.9,4-0.9c1.5,0,2.8,0.4,3.5,1.2c0.8,0.8,1.1,1.8,1.1,3.2v6.7h-1.6v-1.6
			c-0.8,1-2,1.9-3.9,1.9C166.1,54.4,164.1,53.2,164.1,51z M172.2,50.1v-1c-0.8-0.2-1.9-0.5-3.2-0.5c-2,0-3.2,0.9-3.2,2.2v0
			c0,1.4,1.3,2.2,2.7,2.2C170.5,53.1,172.2,51.9,172.2,50.1z"/>
	</g>
</g>
</svg>
