<?xml version="1.0" encoding="utf-8"?>
<!-- Generator: Adobe Illustrator 16.0.0, SVG Export Plug-In . SVG Version: 6.00 Build 0)  -->
<!DOCTYPE svg PUBLIC "-//W3C//DTD SVG 1.1//EN" "http://www.w3.org/Graphics/SVG/1.1/DTD/svg11.dtd">
<svg version="1.1" id="Layer_1" xmlns="http://www.w3.org/2000/svg" xmlns:xlink="http://www.w3.org/1999/xlink" x="0px" y="0px"
	 width="207.5px" height="100px" viewBox="0 0 207.5 100" enable-background="new 0 0 207.5 100" xml:space="preserve">
<g>
	<path fill="#0957A4" d="M53.983,64.067l1.055,3.558c-2.285-0.41-4.614-0.715-6.979-0.896l0.013-2.379l1.039-0.861
		C50.751,63.631,52.378,63.816,53.983,64.067z M80.541,50c0,20.954-17.048,38-38.001,38c-7.732,0-14.928-2.326-20.936-6.309
		c1.051-0.577,2.145-1.199,3.293-1.879c2.438,1.447,5.057,2.621,7.83,3.441c-1.496-1.572-2.861-3.511-4.082-5.734
		c0.92-0.58,1.865-1.188,2.842-1.828c2.569,4.811,5.832,8.029,9.387,8.803V71.438l0.961,3.3l2.365-1.68v11.438
		c4.723-1.025,8.93-6.367,11.68-14.029l1.525,5.15c-1.445,3.041-3.146,5.633-5.054,7.637c6.751-1.996,12.651-5.988,17.007-11.299
		c-1.317-0.587-2.672-1.121-4.051-1.615l-0.535-3.691c2.274,0.744,4.488,1.594,6.612,2.571c3.392-5.073,5.481-11.083,5.79-17.556
		H63.396l4.043-3.324h9.736c-0.307-6.473-2.398-12.486-5.789-17.559c-3.328,1.531-6.859,2.779-10.533,3.736
		c0.301,1.316,0.55,2.686,0.773,4.078l-2.98,2.73c-0.271-2.09-0.629-4.113-1.077-6.039c-4.314,0.9-8.798,1.412-13.368,1.512v3.981
		l-3.326-0.968v-3.014c-4.566-0.1-9.049-0.611-13.362-1.514c-0.934,4.017-1.505,8.434-1.615,13.055h10.774l7.529,3.424v2.729
		l-2.619,2.383l-0.707-0.098v-5.113H25.897c0.11,4.62,0.681,9.035,1.614,13.05c2.397-0.501,4.851-0.868,7.339-1.125l0.157,0.071
		c-2.31,1.596-4.443,3.002-6.417,4.243c-0.074,0.015-0.15,0.026-0.225,0.04c0.008,0.029,0.018,0.057,0.025,0.084
		c-1.035,0.648-2.023,1.25-2.97,1.811c-0.118-0.374-0.243-0.738-0.354-1.121c-3.25,0.848-6.37,1.938-9.332,3.256
		c0.584,0.71,1.199,1.393,1.836,2.053c-1.201,0.559-2.281,1.016-3.254,1.391C8.243,68.678,4.539,59.765,4.539,50
		c0-20.953,17.047-38.001,38.001-38.001C63.493,11.999,80.541,29.047,80.541,50z M24.228,65.482
		c-0.969-4.232-1.549-8.889-1.656-13.818H7.907c0.307,6.473,2.397,12.484,5.789,17.558C17.024,67.691,20.554,66.441,24.228,65.482z
		 M24.228,34.517c-3.674-0.958-7.203-2.208-10.531-3.739c-3.393,5.074-5.482,11.088-5.789,17.562h14.664
		C22.679,43.408,23.259,38.752,24.228,34.517z M32.728,16.746c-6.742,1.994-12.637,5.979-16.992,11.281
		c2.962,1.318,6.083,2.408,9.332,3.256C26.854,25.162,29.505,20.133,32.728,16.746z M40.874,15.505
		c-5.225,1.138-9.823,7.549-12.508,16.55c4.037,0.833,8.23,1.299,12.508,1.396V15.505z M56.718,32.068
		c-2.686-9.012-7.288-15.43-12.518-16.564v17.971C48.482,33.377,52.679,32.9,56.718,32.068z M69.358,28.045
		c-4.355-5.311-10.256-9.303-17.008-11.299c3.228,3.389,5.88,8.425,7.667,14.555C63.269,30.453,66.396,29.365,69.358,28.045z
		 M63.874,39.939l-7.604,6.969l-19.446-5.66l-3.329,2.891l17.214,7.828l-8.306,7.553l-5.811-0.795l-1.923,2.029l6.574,2.968
		l2.016,6.927l2.278-1.619l0.029-5.865l8.646-7.162l5.35,18.061l3.33-2.891l-2.891-19.966l7.967-6.551
		c1.898-1.647,1.945-3.33,1.714-4.342h-0.001c-0.074-0.329-0.223-0.633-0.447-0.892c-0.223-0.256-0.5-0.445-0.812-0.565v-0.001
		C67.454,38.482,65.777,38.288,63.874,39.939z M39.562,65.182l-1.478-0.605C17.227,79.273,8.519,80.131,6.108,79.414
		c-1.032-0.297-1.383-1.172-1.383-1.172c-0.905-2.227,3.471-7.215,3.471-7.215L7.4,69.513c0,0-9.8,10.583-6.845,14.688
		c0,0,0.578,0.748,1.422,1.059c2.451,0.867,11.828,0.578,38.021-18.535L39.562,65.182z"/>
</g>
<text transform="matrix(1 0 0 1 98.6465 45.832)"><tspan x="0" y="0" fill="#808184" font-family="'Gotham-Book'" font-size="21.1509">Asistencia</tspan><tspan x="0" y="21.152" fill="#808184" font-family="'Gotham-Book'" font-size="21.1509">al viajero</tspan></text>
</svg>
