<?xml version="1.0" encoding="utf-8"?>
<!-- Generator: Adobe Illustrator 16.0.0, SVG Export Plug-In . SVG Version: 6.00 Build 0)  -->
<!DOCTYPE svg PUBLIC "-//W3C//DTD SVG 1.1//EN" "http://www.w3.org/Graphics/SVG/1.1/DTD/svg11.dtd">
<svg version="1.1" id="Layer_1" xmlns="http://www.w3.org/2000/svg" xmlns:xlink="http://www.w3.org/1999/xlink" x="0px" y="0px"
	 width="153.5px" height="100px" viewBox="0 0 153.5 100" enable-background="new 0 0 153.5 100" xml:space="preserve">
<g>
	<g>
		<path fill="#0957A4" d="M44.819,10.309H4.866C2.184,10.309,0,12.495,0,15.178v69.646c0,2.683,2.184,4.867,4.866,4.867h48.939
			c2.685,0,4.866-2.185,4.866-4.867V25.361L44.819,10.309z M54.584,84.821c0,0.43-0.352,0.781-0.779,0.781H4.866
			c-0.43,0-0.78-0.352-0.78-0.781V15.178c0-0.431,0.351-0.778,0.78-0.778h37.011v11.837c0,1.129,0.92,2.042,2.046,2.042h10.661
			V84.821z M11.299,34.973h34.715c0.844,0,1.53,0.687,1.53,1.532c0,0.845-0.687,1.53-1.53,1.53H11.299
			c-0.847,0-1.532-0.686-1.532-1.53C9.767,35.659,10.452,34.973,11.299,34.973z M47.544,46.798c0,0.845-0.687,1.53-1.53,1.53H11.299
			c-0.847,0-1.532-0.686-1.532-1.53c0-0.847,0.686-1.532,1.532-1.532h34.715C46.857,45.266,47.544,45.951,47.544,46.798z
			 M47.544,56.751c0,0.847-0.687,1.532-1.53,1.532H11.299c-0.847,0-1.532-0.686-1.532-1.532c0-0.846,0.686-1.531,1.532-1.531h34.715
			C46.857,55.22,47.544,55.905,47.544,56.751z M47.544,66.876c0,0.845-0.687,1.53-1.53,1.53H11.299c-0.847,0-1.532-0.686-1.532-1.53
			c0-0.847,0.686-1.532,1.532-1.532h34.715C46.857,65.344,47.544,66.029,47.544,66.876z"/>
	</g>
</g>
<text transform="matrix(1 0 0 1 77.1875 45.833)"><tspan x="0" y="0" fill="#808184" font-family="'Gotham-Book'" font-size="21.1509">Cartilla</tspan><tspan x="0" y="21.151" fill="#808184" font-family="'Gotham-Book'" font-size="21.1509">online</tspan></text>
</svg>
