<?xml version="1.0" encoding="utf-8"?>
<!-- Generator: Adobe Illustrator 16.0.0, SVG Export Plug-In . SVG Version: 6.00 Build 0)  -->
<!DOCTYPE svg PUBLIC "-//W3C//DTD SVG 1.1//EN" "http://www.w3.org/Graphics/SVG/1.1/DTD/svg11.dtd">
<svg version="1.1" id="Layer_1" xmlns="http://www.w3.org/2000/svg" xmlns:xlink="http://www.w3.org/1999/xlink" x="0px" y="0px"
	 width="100px" height="100px" viewBox="0 0 100 100" enable-background="new 0 0 100 100" xml:space="preserve">
<g>
	<path fill="#0957A4" d="M83.545,26.76c-1.865-0.947-4.042-0.574-5.504,0.754L55.188,14.11c0.768-2.656-0.424-5.566-2.98-6.864
		c-2.894-1.47-6.431-0.315-7.902,2.579c-0.709,1.398-0.795,2.944-0.379,4.338L23.762,26.26c-0.422-0.417-0.893-0.795-1.45-1.077
		c-2.894-1.47-6.432-0.315-7.901,2.579c-1.469,2.895-0.314,6.432,2.58,7.902c1.817,0.922,3.888,0.808,5.541-0.12l10.854,11.36
		c-0.029,0.053-0.068,0.096-0.096,0.148c-1.225,2.412-0.262,5.36,2.15,6.585c0.047,0.024,0.097,0.034,0.145,0.056L31.758,81.68
		c-1.893,0.219-3.643,1.348-4.57,3.174c-1.469,2.895-0.314,6.432,2.58,7.901s6.432,0.314,7.901-2.58
		c0.426-0.839,0.607-1.729,0.614-2.611l33.853-8.373c0.457,0.757,1.112,1.406,1.959,1.836c2.412,1.225,5.359,0.263,6.584-2.149
		s0.263-5.359-2.148-6.584c-0.981-0.498-2.047-0.618-3.052-0.443L68.65,58.544c0.538-0.477,1.006-1.051,1.351-1.731
		c1.099-2.162,0.729-4.683-0.734-6.433l10.522-14.624c2.264,0.754,4.794-0.221,5.906-2.412C86.92,30.932,85.957,27.985,83.545,26.76
		z M66.889,48.706c-0.888-0.347-1.811-0.481-2.712-0.391L52.856,17.31c0.302-0.206,0.581-0.439,0.842-0.702L76.57,30.023
		c-0.33,1.421,0,2.894,0.856,4.035L66.889,48.706z M35.332,82.429c-0.084-0.048-0.154-0.11-0.241-0.155
		c-0.148-0.074-0.303-0.113-0.453-0.175l3.829-28.013c1.479-0.25,2.827-1.158,3.558-2.598c0.002-0.005,0.004-0.01,0.004-0.01
		l16.89,3.084c0.068,0.941,0.355,1.849,0.848,2.653L35.332,82.429z M24.891,33.084c0.711-1.398,0.796-2.944,0.381-4.338
		l20.164-12.098c0.297,0.294,0.629,0.556,0.994,0.785L37.776,44.39c-0.797-0.019-1.578,0.157-2.285,0.507L24.616,33.514
		C24.706,33.37,24.813,33.24,24.891,33.084z M59.52,51.492c-0.034,0.067-0.049,0.14-0.081,0.209l-16.935-3.097
		c-0.179-1.291-0.875-2.48-1.974-3.279l8.662-26.976c0.314,0.019,0.627,0.005,0.938-0.026l11.32,31.006
		C60.663,49.867,59.982,50.581,59.52,51.492z M37.6,84.737c-0.053-0.099-0.118-0.189-0.177-0.286l24.434-25.213
		c0.084,0.048,0.154,0.11,0.242,0.155c1.272,0.646,2.663,0.758,3.954,0.465l6.841,13.325c-0.369,0.362-0.701,0.772-0.949,1.26
		c-0.314,0.62-0.479,1.274-0.518,1.928L37.6,84.737z"/>
</g>
</svg>
