<?xml version="1.0" encoding="utf-8"?>
<!-- Generator: Adobe Illustrator 16.0.0, SVG Export Plug-In . SVG Version: 6.00 Build 0)  -->
<!DOCTYPE svg PUBLIC "-//W3C//DTD SVG 1.1//EN" "http://www.w3.org/Graphics/SVG/1.1/DTD/svg11.dtd">
<svg version="1.1" id="Layer_1" xmlns="http://www.w3.org/2000/svg" xmlns:xlink="http://www.w3.org/1999/xlink" x="0px" y="0px"
	 width="181.647px" height="52.657px" viewBox="0 0 181.647 52.657" enable-background="new 0 0 181.647 52.657"
	 xml:space="preserve">
<g>
	<path fill="#09683F" d="M8.502,17.375c0-2.523,0.713-5.505,2.578-7.829c1.452-1.815,3.742-3.13,6.42-3.13
		c2.703,0,5.004,2.066,5.004,5.217c0,3.378-2.125,10.789-8.898,10.789c-1.718,0-2.68-0.532-3.185-0.886
		C8.502,20.214,8.502,18.013,8.502,17.375 M17.828,0.114c-11.991,0-16.629,9.615-16.629,16.898c0,7.895,6.451,11.759,12.199,11.759
		c2.12,0,9.107-0.31,13.55-7.351c1.838-2.912,2.649-7.153,2.649-10.429C29.596,7.875,26.618,0.114,17.828,0.114"/>
	<path fill="#09683F" d="M36.39,19.197c0,0.031-1.351,1.977-1.383,1.915c0,0.033,1.646,1.572,3.831,1.701
		c2.097,0.121,5.004-0.033,5.708-2.374c0.726-2.41-4.89-3.55-9.386-6.066c-1.511-0.852-3.439-2.698-3.282-6.66
		c0.183-4.467,4.691-7.168,9.568-7.654c7.297-0.733,12.404,5.739,12.404,5.739l-5.837,5.735l-3.833-2.636
		c0.033,0.006,0.884-1.258,1.185-1.829c-0.425-1.052-5.974-1.112-6.313,0.497c-0.019,1.436,5.435,2.608,8.238,4.525
		c3.429,2.349,4.802,4.303,4.329,8.311c-0.534,4.472-5.21,8.384-11.628,8.506c-9.937,0.18-13.036-7.882-13.036-7.882l6.156-5.38
		L36.39,19.197z"/>
	<path fill="#09683F" d="M65.57,6.746c3.348,0.177,6.688,2.971,5.964,7.592c-1.207,7.119-6.019,7.606-8.84,7.606
		c-0.914,0-1.881-0.043-2.852-0.043l3.332-15.323L65.57,6.746z M54.936,5.488l1.066-0.042l-3.863,17.77l-1.246-0.038l-1.05,5.028
		h13.462c4.734,0,16.065-2.629,15.521-16.794C78.7,8.255,76.023,0.478,65.209,0.478h-9.222L54.936,5.488z"/>
	<path fill="#09683F" d="M113.892,6.527c1.899-0.034,3.404-0.116,4.104,0.495c0.61,0.524,0.668,1.256,0.363,1.867
		c-1.068,2.137-5.087,3.779-5.787,3.744L113.892,6.527z M105.614,5.473l1.227,0.004l-3.991,17.651h-1.096l-1.145,5.114h10
		l1.068-5.098h-1.453L111,19.759c0,0,14.795-3.17,14.795-11.747c0-6.644-5.284-7.534-10.415-7.681h-8.626L105.614,5.473z"/>
	<polygon fill="#09683F" points="151.488,0.347 150.398,5.421 148.57,5.421 138.857,18.251 137.777,23.132 139.082,23.132 
		137.93,28.243 128.064,28.243 129.137,23.139 130.38,23.128 131.519,17.595 127.402,5.405 124.962,5.405 126.006,0.347 
		136.026,0.347 134.878,5.733 136.58,10.72 140.982,4.876 141.949,0.347 	"/>
	<polygon fill="#09683F" points="181.68,0.378 180.558,5.536 179.456,5.536 175.515,23.145 176.672,23.145 175.56,28.263 
		165.85,28.263 166.975,23.136 168.202,23.132 169.976,14.231 164.101,22.043 159.957,22.043 157.126,13.866 154.806,23.128 
		156.127,23.128 154.992,28.288 145.933,28.288 147.025,23.116 148.303,23.12 152.18,5.432 151.029,5.432 152.118,0.333 
		159.905,0.333 164.002,11.72 172.57,0.378 	"/>
	<path fill="#09683F" d="M92.954,15.697l0.158,1.027h4.673l1.801-8.284h3.351l1.815-8.149h-22.55l-1.083,5.197l1.16-0.002
		L78.33,23.126h-1.232l-1.088,5.116h23.776l1.867-8.658h-5.027l-0.893,2.093h-9.815l1.29-5.98H92.954z M89.165,6.633h9.034
		l0.355,1.449H94.97l-0.844,1.129H88.62L89.165,6.633z"/>
	<rect y="32.614" fill="#0957A4" width="181.647" height="1.096"/>
	<rect y="51.564" fill="#0957A4" width="181.647" height="1.093"/>
	<path fill="#0957A4" d="M9.396,46.997c-0.059-0.07-0.109-0.129-0.213-0.171c-0.098-0.041-0.234-0.058-0.481-0.058h-6.22v-0.282
		c0.788-0.142,0.865-0.458,0.865-1.58v-5.759c0-1.122-0.077-1.417-0.865-1.575v-0.287h3.892v0.287
		c-0.839,0.124-0.91,0.499-0.91,1.575v5.335c0,0.698,0,0.876,0.111,1.06c0.199,0.322,0.602,0.391,0.959,0.391
		c1.917,0,3.074-1.385,3.902-2.912l0.184,0.083L9.396,46.997z"/>
	<path fill="#0957A4" d="M10.987,42.278l0.24-2.435c0.082,0.104,0.188,0.2,0.457,0.2c0.248,0,1.149-0.314,1.507-0.381
		c0.512-0.1,1.004-0.158,1.53-0.158c2.356,0,2.571,1.094,2.571,2.35v3.022c0,1.239,0.284,1.538,0.95,1.696v0.195h-2.274
		c-0.321-0.426-0.411-0.621-0.491-1.193c-0.213,0.302-0.394,0.541-0.738,0.78c-0.641,0.413-1.425,0.571-2.065,0.571
		c-1.446,0-2.237-0.77-2.237-1.763c0-1.987,2.611-2.687,4.972-3.127c0-0.623,0-0.854-0.146-1.109
		c-0.299-0.482-0.951-0.526-1.266-0.526c-1.984,0-2.646,1.387-2.87,1.906L10.987,42.278z M12.362,44.922
		c0,0.438,0.355,0.984,1.064,0.984c0.67,0,1.351-0.402,1.68-0.984c0.302-0.553,0.323-1.337,0.323-2.223
		C13.101,43.176,12.362,44.094,12.362,44.922"/>
	<path fill="#0957A4" d="M27.828,46.984c-3.965,0-5.177-2.989-5.177-4.947c0-2.521,1.781-4.964,5.215-4.964
		c3.963,0,5.108,3.172,5.108,4.918C32.975,44.881,30.859,46.984,27.828,46.984 M28.054,45.906c1.117,0,2.667-0.888,2.667-3.372
		c0-2.104-1.138-4.347-3.136-4.347c-0.614,0-2.639,0.276-2.639,3.368C24.946,43.885,26.338,45.906,28.054,45.906"/>
	<path fill="#0957A4" d="M33.448,46.768v-0.195c0.81-0.14,0.81-0.553,0.81-1.468v-6.153c0-0.91,0-1.393-0.926-1.466v-0.205
		l2.752-0.326v2.608c0.079-0.013,0.244-0.013,0.447-0.025c0.195-0.022,0.418-0.022,0.598-0.022c1.561,0,2.776,0.445,3.589,1.378
		c0.626,0.732,0.924,1.641,0.924,2.539c0,0.781-0.252,1.702-0.839,2.255c-0.878,0.827-1.615,1.081-3.073,1.081H33.448z
		 M36.084,45.105c0,0.424,0,0.939,1.139,0.939c1.466,0,2.443-1.033,2.443-2.686c0-1.804-1.337-3.054-2.835-3.054
		c-0.175,0-0.462,0.011-0.747,0.057V45.105z"/>
	<path fill="#0957A4" d="M47.38,41.224c-0.228-0.156-0.5-0.327-0.957-0.327c-0.612,0-1.16,0.383-1.349,0.887
		c-0.195,0.494-0.283,1.033-0.283,2.172v1.149c0,0.913,0,1.396,0.924,1.468v0.195h-3.57v-0.195c0.8-0.133,0.833-0.528,0.833-1.468
		v-3.621c0-0.915,0-1.326-0.833-1.464v-0.203l2.279-0.184c0.262,0.51,0.331,0.782,0.367,1.576c0.778-1.521,2.143-1.625,2.371-1.625
		c0.183,0,0.498,0.049,0.579,0.066L47.38,41.224z"/>
	<path fill="#0957A4" d="M48.015,42.278l0.24-2.435c0.083,0.104,0.188,0.2,0.458,0.2c0.26,0,1.149-0.314,1.502-0.381
		c0.511-0.1,1.011-0.158,1.535-0.158c2.356,0,2.573,1.094,2.573,2.35v3.022c0,1.239,0.282,1.538,0.95,1.696v0.195h-2.276
		c-0.325-0.426-0.413-0.621-0.492-1.193c-0.211,0.302-0.387,0.541-0.738,0.78c-0.646,0.413-1.422,0.571-2.063,0.571
		c-1.45,0-2.239-0.77-2.239-1.763c0-1.987,2.614-2.687,4.973-3.127c0-0.623,0-0.854-0.144-1.109
		c-0.304-0.482-0.955-0.526-1.264-0.526c-1.99,0-2.642,1.387-2.872,1.906L48.015,42.278z M49.393,44.922
		c0,0.438,0.355,0.984,1.066,0.984c0.664,0,1.352-0.402,1.675-0.984c0.305-0.553,0.328-1.337,0.328-2.223
		C50.131,43.176,49.393,44.094,49.393,44.922"/>
	<path fill="#0957A4" d="M66.706,40.101l-0.2,0.044c-0.701-1.426-2.051-2.049-2.968-2.049c-0.856,0-1.705,0.467-1.705,1.164
		c0,0.642,0.81,0.885,1.287,1.03l2.204,0.637c0.528,0.16,2.371,0.715,2.371,2.586c0,1.338-1.034,3.471-4.331,3.471
		c-0.564,0-1.036-0.058-1.599-0.187c-0.786-0.166-0.895-0.2-1.096-0.2c-0.355,0-0.514,0.132-0.696,0.316l-0.613-3.879l0.205-0.046
		c0.13,0.48,0.368,1.361,1.207,2.092c0.713,0.627,1.584,0.862,2.386,0.862c1.111,0,2.405-0.54,2.405-1.593
		c0-0.85-0.879-1.166-1.658-1.391l-2.061-0.61c-0.966-0.298-2.101-0.97-2.101-2.35c0-1.031,0.884-2.927,3.549-2.927
		c0.973,0,1.846,0.295,2.161,0.295c0.268,0,0.541-0.083,0.755-0.295L66.706,40.101z"/>
	<path fill="#0957A4" d="M72.041,46.926c-2.712,0-3.919-1.821-3.919-3.642c0-2.241,1.716-3.784,4.088-3.784
		c2.444,0,3.893,1.597,3.893,3.601C76.102,45.987,73.755,46.926,72.041,46.926 M72.055,40.34c-0.626,0-1.198,0.3-1.52,0.781
		c-0.404,0.633-0.458,1.412-0.458,1.834c0,1.455,0.597,3.146,2.074,3.146c0.656,0,1.237-0.381,1.545-0.906
		c0.354-0.587,0.445-1.283,0.445-1.825C74.141,41.625,73.413,40.34,72.055,40.34"/>
	<path fill="#0957A4" d="M82.963,46.899c-0.16-0.073-0.229-0.089-0.4-0.089c-0.071,0-0.24,0-0.313,0.016
		c-0.8,0.088-0.922,0.101-1.292,0.101c-2.325,0-4.377-1.405-4.377-3.925c0-2.403,1.907-3.453,3.638-3.453
		c0.384,0,0.599,0.031,1.323,0.127c0.068,0.009,0.342,0.044,0.526,0.044c0.351,0,0.485-0.086,0.621-0.184l0.485,2.412l-0.16,0.043
		c-0.126-0.266-0.293-0.623-0.654-0.947c-0.423-0.412-1.002-0.643-1.56-0.643c-1.252,0-2.257,1.068-2.257,2.643
		c0,1.835,1.334,2.984,2.681,2.984c0.557,0,1.224-0.212,1.718-0.594c0.383-0.302,0.543-0.566,0.683-0.826l0.157,0.086L82.963,46.899
		z"/>
	<path fill="#0957A4" d="M86.411,45.105c0,0.913,0,1.372,0.875,1.468v0.199h-3.523v-0.199c0.802-0.133,0.827-0.528,0.827-1.468
		v-3.623c0-0.913,0-1.341-0.827-1.462v-0.203l2.648-0.184V45.105z M85.474,38.762c-0.611,0-1.109-0.484-1.109-1.133
		c0-0.686,0.514-1.143,1.12-1.143c0.487,0,1.113,0.33,1.113,1.155C86.598,38.2,86.162,38.762,85.474,38.762"/>
	<path fill="#0957A4" d="M88.154,42.278l0.242-2.435c0.08,0.104,0.189,0.2,0.451,0.2c0.26,0,1.154-0.314,1.511-0.381
		c0.504-0.1,1.002-0.158,1.53-0.158c2.356,0,2.576,1.094,2.576,2.35v3.022c0,1.239,0.278,1.538,0.941,1.696v0.195h-2.271
		c-0.326-0.426-0.409-0.621-0.496-1.193c-0.217,0.302-0.387,0.541-0.74,0.78c-0.635,0.413-1.413,0.571-2.059,0.571
		c-1.444,0-2.234-0.77-2.234-1.763c0-1.987,2.606-2.687,4.966-3.127c0-0.623,0-0.854-0.15-1.109
		c-0.293-0.482-0.942-0.526-1.261-0.526c-1.984,0-2.638,1.387-2.864,1.906L88.154,42.278z M89.527,44.922
		c0,0.438,0.355,0.984,1.066,0.984c0.67,0,1.346-0.402,1.673-0.984c0.305-0.553,0.33-1.337,0.33-2.223
		C90.266,43.176,89.527,44.094,89.527,44.922"/>
	<path fill="#0957A4" d="M98.322,45.105c0,0.915,0,1.372,0.871,1.468v0.195h-3.521v-0.195c0.785-0.14,0.816-0.516,0.816-1.468
		v-6.153c0-0.897,0-1.367-0.877-1.466v-0.205l2.711-0.326V45.105z"/>
	<path fill="#0957A4" d="M111.209,46.997c-0.039-0.058-0.116-0.116-0.194-0.149c-0.092-0.048-0.202-0.079-0.354-0.079h-6.969v-0.282
		c0.766-0.158,0.848-0.441,0.848-1.58v-5.759c0-1.139-0.082-1.417-0.848-1.575v-0.287h6.465c0.516,0,0.611-0.083,0.766-0.212
		l0.686,3.185l-0.199,0.083c-0.316-0.619-1.152-2.201-3.451-2.201c-1.146,0-1.301,0.472-1.301,1.227v0.879h1.139
		c1.09,0,1.398-0.229,1.424-1.08l0.202-0.033l0.595,3.515l-0.198,0.04c-0.431-0.878-0.792-1.589-2.401-1.589h-0.76v3.313
		c0,0.911,0.037,1.521,1.488,1.521c1.516,0,2.369-0.682,2.831-1.102c0.8-0.761,1.087-1.334,1.255-1.646l0.2,0.101L111.209,46.997z"
		/>
	<path fill="#0957A4" d="M124.572,45.105c0,0.915,0,1.372,0.869,1.468v0.195h-3.514v-0.195c0.809-0.14,0.809-0.553,0.809-1.468
		V42.22c0-0.595-0.057-0.886-0.153-1.064c-0.155-0.271-0.488-0.441-0.796-0.441c-0.549,0-1.189,0.383-1.477,0.865
		c-0.365,0.597-0.436,1.068-0.436,1.975v1.551c0,0.915,0,1.372,0.86,1.468v0.195h-3.513v-0.195c0.812-0.131,0.812-0.571,0.812-1.468
		v-2.868c0-0.331-0.027-0.797-0.166-1.068c-0.145-0.256-0.456-0.454-0.764-0.454c-0.715,0-1.934,0.707-1.934,2.47v1.921
		c0,0.915-0.016,1.355,0.845,1.468v0.195h-3.518v-0.195c0.843-0.131,0.843-0.553,0.843-1.468v-3.621c0-0.915,0-1.341-0.843-1.466
		v-0.201l2.272-0.184c0.238,0.441,0.326,0.624,0.4,1.477c0.6-0.626,1.775-1.606,2.932-1.606c1.409,0,1.65,1.065,1.771,1.552
		c0.461-0.457,1.631-1.552,2.966-1.552c0.774,0,1.731,0.483,1.731,2.137V45.105z"/>
	<path fill="#0957A4" d="M128.25,48.198c0,0.891,0,1.375,0.912,1.464v0.197h-3.571v-0.197c0.798-0.133,0.832-0.528,0.832-1.464
		v-6.898c0-0.9,0-1.327-0.832-1.466v-0.183h3.571c1.943,0,3.078,0.251,3.934,1.376c0.65,0.853,0.773,1.808,0.773,2.405
		c0,1.459-0.786,2.596-1.799,3.008c-1.12,0.459-2.455,0.432-3.82,0.386V48.198z M128.25,44.608c0,0.755,0.07,0.969,0.282,1.14
		c0.346,0.28,0.701,0.297,0.958,0.297c1.785,0,2.424-1.437,2.424-2.702c0-0.711-0.213-1.921-1.297-2.499
		c-0.42-0.229-0.964-0.413-2.367-0.37V44.608z"/>
	<path fill="#0957A4" d="M139.611,41.224c-0.231-0.156-0.502-0.327-0.957-0.327c-0.605,0-1.164,0.383-1.352,0.887
		c-0.195,0.494-0.278,1.033-0.278,2.172v1.149c0,0.913,0,1.396,0.919,1.468v0.195h-3.559v-0.195
		c0.794-0.133,0.818-0.528,0.818-1.468v-3.621c0-0.915,0-1.326-0.818-1.464v-0.203l2.264-0.184c0.278,0.51,0.332,0.782,0.376,1.576
		c0.784-1.521,2.142-1.625,2.37-1.625c0.185,0,0.498,0.049,0.582,0.066L139.611,41.224z"/>
	<path fill="#0957A4" d="M141.801,43.5c0.365,1.875,1.771,2.544,2.748,2.544c0.64,0,1.382-0.278,1.858-0.748
		c0.357-0.333,0.52-0.698,0.656-1l0.182,0.073l-0.793,2.515c-0.124-0.102-0.211-0.146-0.367-0.146c-0.201,0-0.967,0.188-1.916,0.188
		c-2.826,0-4.406-1.705-4.406-3.742c0-2.361,1.95-3.681,3.965-3.681c0.602,0,1.59,0.105,2.474,0.897
		c0.737,0.65,0.894,1.291,1.009,1.715L141.801,43.5z M145.168,41.894c-0.319-1.41-1.28-1.506-1.632-1.506
		c-0.606,0-1.129,0.341-1.407,0.78c-0.394,0.594-0.403,1.253-0.403,1.621L145.168,41.894z"/>
	<path fill="#0957A4" d="M153.421,41.864l-0.156,0.014c-0.098-0.322-0.195-0.637-0.68-1.021c-0.509-0.398-1.118-0.565-1.705-0.565
		c-0.723,0-1.378,0.254-1.378,0.794c0,0.495,0.597,0.678,1.163,0.851l1.541,0.457c0.679,0.214,1.871,0.563,1.871,1.919
		c0,1.418-1.297,2.615-3.384,2.615c-0.781,0-1.501-0.154-2.054-0.281c-0.375-0.083-0.49-0.1-0.607-0.1
		c-0.199,0-0.315,0.1-0.42,0.206l-0.143-2.823l0.176-0.031c0.071,0.339,0.169,0.779,0.537,1.256
		c0.569,0.711,1.438,0.991,2.214,0.991c1.224,0,1.822-0.669,1.822-1.276c0-0.518-0.485-0.748-1.167-0.927l-1.348-0.396
		c-0.797-0.229-2.033-0.66-2.033-1.951c0-1.039,0.914-2.09,2.977-2.09c0.674,0,1.07,0.084,1.795,0.241
		c0.072,0.017,0.301,0.061,0.479,0.061c0.176,0,0.264-0.044,0.404-0.131L153.421,41.864z"/>
	<path fill="#0957A4" d="M154.974,42.278l0.238-2.435c0.08,0.104,0.191,0.2,0.456,0.2c0.26,0,1.147-0.314,1.501-0.381
		c0.513-0.1,1.014-0.158,1.537-0.158c2.355,0,2.57,1.094,2.57,2.35v3.022c0,1.239,0.278,1.538,0.952,1.696v0.195h-2.274
		c-0.326-0.426-0.414-0.621-0.492-1.193c-0.215,0.302-0.389,0.541-0.746,0.78c-0.639,0.413-1.412,0.571-2.057,0.571
		c-1.447,0-2.238-0.77-2.238-1.763c0-1.987,2.617-2.687,4.971-3.127c0-0.623,0-0.854-0.145-1.109
		c-0.301-0.482-0.945-0.526-1.266-0.526c-1.982,0-2.636,1.387-2.869,1.906L154.974,42.278z M156.348,44.922
		c0,0.438,0.357,0.984,1.064,0.984c0.665,0,1.347-0.402,1.684-0.984c0.296-0.553,0.322-1.337,0.322-2.223
		C157.088,43.176,156.348,44.094,156.348,44.922"/>
	<path fill="#0957A4" d="M167.812,41.224c-0.234-0.156-0.496-0.327-0.951-0.327c-0.613,0-1.166,0.383-1.354,0.887
		c-0.204,0.494-0.285,1.033-0.285,2.172v1.149c0,0.913,0,1.396,0.919,1.468v0.195h-3.561v-0.195
		c0.796-0.133,0.827-0.528,0.827-1.468v-3.621c0-0.915,0-1.326-0.827-1.464v-0.203l2.274-0.184c0.27,0.51,0.328,0.782,0.367,1.576
		c0.779-1.521,2.146-1.625,2.372-1.625c0.179,0,0.499,0.049,0.58,0.066L167.812,41.224z"/>
	<path fill="#0957A4" d="M170.978,45.105c0,0.913,0,1.372,0.887,1.468v0.199h-3.52v-0.199c0.789-0.133,0.82-0.528,0.82-1.468v-3.623
		c0-0.913,0-1.341-0.82-1.462v-0.203l2.633-0.184V45.105z M170.045,38.762c-0.609,0-1.108-0.484-1.108-1.133
		c0-0.686,0.516-1.143,1.121-1.143c0.488,0,1.131,0.33,1.131,1.155C171.189,38.2,170.74,38.762,170.045,38.762"/>
	<path fill="#0957A4" d="M172.735,42.278l0.235-2.435c0.083,0.104,0.193,0.2,0.457,0.2c0.258,0,1.147-0.314,1.509-0.381
		c0.508-0.1,1.005-0.158,1.528-0.158c2.355,0,2.571,1.094,2.571,2.35v3.022c0,1.239,0.283,1.538,0.952,1.696v0.195h-2.276
		c-0.317-0.426-0.413-0.621-0.488-1.193c-0.216,0.302-0.389,0.541-0.742,0.78c-0.645,0.413-1.422,0.571-2.062,0.571
		c-1.449,0-2.239-0.77-2.239-1.763c0-1.987,2.614-2.687,4.972-3.127c0-0.623,0-0.854-0.145-1.109
		c-0.305-0.482-0.948-0.526-1.269-0.526c-1.979,0-2.636,1.387-2.864,1.906L172.735,42.278z M174.113,44.922
		c0,0.438,0.35,0.984,1.057,0.984c0.667,0,1.348-0.402,1.676-0.984c0.307-0.553,0.332-1.337,0.332-2.223
		C174.841,43.176,174.113,44.094,174.113,44.922"/>
</g>
</svg>
