<?xml version="1.0" encoding="utf-8"?>
<!-- Generator: Adobe Illustrator 16.0.0, SVG Export Plug-In . SVG Version: 6.00 Build 0)  -->
<!DOCTYPE svg PUBLIC "-//W3C//DTD SVG 1.1//EN" "http://www.w3.org/Graphics/SVG/1.1/DTD/svg11.dtd">
<svg version="1.1" id="Layer_1" xmlns="http://www.w3.org/2000/svg" xmlns:xlink="http://www.w3.org/1999/xlink" x="0px" y="0px"
	 width="181.646px" height="52.657px" viewBox="0 0 181.646 52.657" enable-background="new 0 0 181.646 52.657"
	 xml:space="preserve">
<g opacity="0.7">
	<path fill="#FFFFFF" d="M13.398,28.771c2.12,0,9.107-0.31,13.551-7.351c0.036-0.057,0.065-0.122,0.101-0.18
		c0.552,1.232,3.929,7.83,12.942,7.667c6.418-0.121,11.094-4.034,11.628-8.506c0.473-4.008-0.9-5.962-4.329-8.311
		c-2.804-1.917-8.257-3.089-8.238-4.525c0.339-1.609,5.888-1.549,6.313-0.497c-0.302,0.571-1.152,1.835-1.186,1.829l3.833,2.636
		l5.837-5.735c0,0-5.106-6.472-12.404-5.739c-4.877,0.486-9.385,3.187-9.567,7.654c-0.157,3.962,1.771,5.808,3.282,6.66
		c4.496,2.516,10.111,3.656,9.386,6.066c-0.704,2.341-3.611,2.495-5.708,2.374c-2.186-0.129-3.831-1.668-3.831-1.701
		c0.032,0.062,1.383-1.884,1.383-1.915l-3.279-3.552l-5.738,5.016c1.532-2.858,2.225-6.664,2.225-9.669
		C29.596,7.875,26.618,0.114,17.828,0.114c-11.991,0-16.629,9.615-16.629,16.898C1.199,24.907,7.65,28.771,13.398,28.771z
		 M11.08,9.546c1.452-1.815,3.742-3.13,6.42-3.13c2.703,0,5.004,2.066,5.004,5.217c0,3.378-2.125,10.789-8.898,10.789
		c-1.718,0-2.68-0.532-3.185-0.886c-1.919-1.322-1.919-3.523-1.919-4.161C8.502,14.852,9.215,11.87,11.08,9.546z"/>
	<path fill="#FFFFFF" d="M52.139,23.216l-1.246-0.038l-1.05,5.028h13.462c4.734,0,16.065-2.628,15.521-16.793
		C78.7,8.255,76.023,0.478,65.209,0.478h-9.223l-1.051,5.01l1.066-0.042L52.139,23.216z M63.174,6.578l2.396,0.168
		c3.349,0.177,6.688,2.971,5.965,7.592c-1.207,7.119-6.02,7.606-8.841,7.606c-0.914,0-1.881-0.043-2.852-0.043L63.174,6.578z"/>
	<path fill="#FFFFFF" d="M102.85,23.128h-1.096l-1.146,5.115h10l1.068-5.099h-1.453L111,19.759c0,0,14.795-3.17,14.795-11.747
		c0-0.998-0.132-1.852-0.352-2.607h1.958l4.117,12.189l-1.139,5.533l-1.243,0.011l-1.073,5.104h9.866l1.152-5.111h-1.306l1.08-4.881
		l9.713-12.83h1.828l1.091-5.074h-9.539l-0.968,4.529l-4.401,5.844l-1.702-4.987l1.147-5.386h-10.02l-0.869,4.21
		c-1.562-3.518-5.702-4.11-9.757-4.227h-8.626l-1.14,5.142l1.227,0.004L102.85,23.128z M113.892,6.527
		c1.899-0.034,3.404-0.116,4.104,0.495c0.609,0.524,0.668,1.256,0.362,1.867c-1.067,2.137-5.087,3.779-5.786,3.744L113.892,6.527z"
		/>
	<polygon fill="#FFFFFF" points="152.18,5.432 148.303,23.12 147.025,23.116 145.933,28.288 154.992,28.288 156.127,23.128 
		154.806,23.128 157.126,13.866 159.957,22.043 164.101,22.043 169.976,14.231 168.202,23.132 166.975,23.136 165.85,28.263 
		175.56,28.263 176.672,23.145 175.515,23.145 179.456,5.536 180.558,5.536 181.68,0.378 172.57,0.378 164.002,11.72 159.906,0.333 
		152.118,0.333 151.029,5.432 	"/>
	<path fill="#FFFFFF" d="M78.33,23.126h-1.232l-1.088,5.117h23.776l1.866-8.659h-5.026l-0.894,2.093h-9.814l1.29-5.979h5.746
		l0.157,1.027h4.674l1.801-8.284h3.351l1.815-8.149h-22.55l-1.083,5.197l1.159-0.002L78.33,23.126z M89.165,6.633h9.034l0.354,1.449
		H94.97l-0.844,1.129H88.62L89.165,6.633z"/>
	<rect x="0" y="32.614" fill="#FFFFFF" width="181.646" height="1.096"/>
	<rect x="0" y="51.564" fill="#FFFFFF" width="181.646" height="1.093"/>
	<path fill="#FFFFFF" d="M2.482,46.486v0.282h6.221c0.247,0,0.383,0.018,0.48,0.059c0.104,0.041,0.154,0.1,0.213,0.17l1.225-3.893
		l-0.185-0.083c-0.828,1.526-1.984,2.912-3.901,2.912c-0.357,0-0.761-0.069-0.959-0.392c-0.111-0.184-0.111-0.361-0.111-1.06v-5.335
		c0-1.076,0.071-1.451,0.91-1.574v-0.287H2.482v0.287c0.788,0.157,0.865,0.452,0.865,1.574v5.76
		C3.347,46.028,3.27,46.344,2.482,46.486z"/>
	<path fill="#FFFFFF" d="M10.437,45.163c0,0.992,0.791,1.762,2.237,1.762c0.64,0,1.424-0.157,2.065-0.57
		c0.344-0.238,0.524-0.479,0.737-0.779c0.08,0.571,0.17,0.766,0.491,1.192h2.274v-0.194c-0.666-0.158-0.95-0.457-0.95-1.697v-3.021
		c0-1.256-0.215-2.35-2.571-2.35c-0.526,0-1.018,0.058-1.53,0.158c-0.357,0.066-1.259,0.381-1.507,0.381
		c-0.269,0-0.375-0.096-0.457-0.201l-0.24,2.436l0.141,0.028c0.224-0.519,0.886-1.906,2.87-1.906c0.314,0,0.967,0.044,1.266,0.526
		c0.146,0.255,0.146,0.486,0.146,1.109C13.048,42.475,10.437,43.174,10.437,45.163z M15.429,42.7c0,0.885-0.021,1.67-0.323,2.223
		c-0.329,0.582-1.01,0.984-1.68,0.984c-0.709,0-1.064-0.547-1.064-0.984C12.362,44.094,13.101,43.176,15.429,42.7z"/>
	<path fill="#FFFFFF" d="M32.974,41.991c0-1.746-1.145-4.918-5.107-4.918c-3.435,0-5.216,2.443-5.216,4.965
		c0,1.957,1.212,4.946,5.178,4.946C30.859,46.984,32.975,44.881,32.974,41.991z M24.946,41.555c0-3.092,2.025-3.368,2.64-3.368
		c1.998,0,3.136,2.243,3.136,4.347c0,2.484-1.55,3.373-2.667,3.373C26.338,45.907,24.946,43.885,24.946,41.555z"/>
	<path fill="#FFFFFF" d="M33.332,37.282v0.204c0.926,0.073,0.926,0.556,0.926,1.466v6.153c0,0.915,0,1.328-0.81,1.468v0.195v0.001
		h4.281c1.458,0,2.195-0.254,3.073-1.081c0.587-0.553,0.839-1.475,0.839-2.255c0-0.897-0.298-1.808-0.924-2.539
		c-0.812-0.933-2.028-1.378-3.589-1.378c-0.18,0-0.403,0-0.598,0.021c-0.203,0.012-0.368,0.012-0.447,0.025v-2.607L33.332,37.282z
		 M36.831,40.304c1.498,0,2.835,1.25,2.835,3.054c0,1.652-0.978,2.686-2.443,2.686c-1.139,0-1.139-0.515-1.139-0.938v-4.744
		C36.369,40.315,36.656,40.304,36.831,40.304z"/>
	<path fill="#FFFFFF" d="M42.145,46.573v0.195h3.57v-0.195c-0.924-0.072-0.924-0.555-0.924-1.468v-1.149
		c0-1.139,0.088-1.678,0.283-2.172c0.188-0.504,0.736-0.887,1.349-0.887c0.457,0,0.729,0.171,0.957,0.327l0.361-1.574
		c-0.081-0.017-0.396-0.065-0.579-0.065c-0.229,0-1.594,0.104-2.371,1.625c-0.036-0.795-0.105-1.066-0.367-1.576l-2.279,0.184v0.203
		c0.833,0.139,0.833,0.549,0.833,1.464v3.621C42.978,46.045,42.945,46.44,42.145,46.573z"/>
	<path fill="#FFFFFF" d="M47.465,45.163c0,0.992,0.789,1.762,2.239,1.762c0.641,0,1.417-0.157,2.062-0.57
		c0.352-0.238,0.527-0.479,0.738-0.779c0.079,0.571,0.167,0.766,0.492,1.192h2.275v-0.194c-0.668-0.158-0.949-0.457-0.949-1.697
		v-3.021c0-1.256-0.218-2.35-2.573-2.35c-0.524,0-1.024,0.058-1.535,0.158c-0.354,0.066-1.242,0.381-1.502,0.381
		c-0.271,0-0.375-0.096-0.458-0.201l-0.24,2.436l0.144,0.028c0.229-0.519,0.882-1.906,2.872-1.906c0.309,0,0.96,0.044,1.264,0.526
		c0.144,0.255,0.144,0.486,0.144,1.109C50.079,42.475,47.465,43.174,47.465,45.163z M52.462,42.7c0,0.885-0.023,1.67-0.328,2.223
		c-0.323,0.582-1.011,0.984-1.675,0.984c-0.711,0-1.066-0.547-1.066-0.984C49.393,44.094,50.131,43.176,52.462,42.7z"/>
	<path fill="#FFFFFF" d="M63.158,45.942c-0.803,0-1.674-0.234-2.387-0.861c-0.839-0.731-1.077-1.613-1.207-2.093l-0.205,0.046
		l0.613,3.879c0.183-0.184,0.341-0.315,0.696-0.315c0.201,0,0.31,0.034,1.096,0.2c0.563,0.129,1.035,0.187,1.6,0.187
		c3.297,0,4.33-2.133,4.33-3.471c0-1.871-1.843-2.427-2.37-2.587L63.12,40.29c-0.478-0.145-1.287-0.388-1.287-1.029
		c0-0.697,0.849-1.164,1.705-1.164c0.917,0,2.267,0.623,2.968,2.049l0.2-0.044l-0.498-3.03c-0.214,0.213-0.487,0.295-0.755,0.295
		c-0.315,0-1.188-0.295-2.161-0.295c-2.665,0-3.549,1.896-3.549,2.928c0,1.379,1.135,2.051,2.101,2.35l2.062,0.609
		c0.778,0.226,1.657,0.541,1.657,1.392C65.563,45.402,64.269,45.942,63.158,45.942z"/>
	<path fill="#FFFFFF" d="M76.103,43.101c0-2.004-1.449-3.601-3.893-3.601c-2.372,0-4.088,1.543-4.088,3.783
		c0,1.821,1.207,3.643,3.919,3.643C73.755,46.926,76.102,45.987,76.103,43.101z M70.077,42.956c0-0.422,0.054-1.201,0.458-1.834
		c0.321-0.481,0.894-0.781,1.52-0.781c1.358,0,2.086,1.285,2.086,3.029c0,0.543-0.091,1.238-0.445,1.825
		c-0.308,0.524-0.889,0.906-1.545,0.906C70.674,46.101,70.077,44.411,70.077,42.956z"/>
	<path fill="#FFFFFF" d="M80.8,40.401c0.558,0,1.137,0.23,1.56,0.643c0.361,0.324,0.528,0.682,0.654,0.947l0.16-0.043l-0.485-2.412
		c-0.136,0.098-0.27,0.184-0.621,0.184c-0.184,0-0.458-0.034-0.525-0.043c-0.725-0.096-0.939-0.127-1.323-0.127
		c-1.731,0-3.638,1.05-3.638,3.453c0,2.52,2.052,3.924,4.377,3.924c0.37,0,0.492-0.012,1.292-0.1
		c0.073-0.017,0.242-0.017,0.312-0.017c0.171,0,0.24,0.017,0.4,0.089l0.819-2.205l-0.157-0.086c-0.141,0.26-0.3,0.523-0.684,0.826
		c-0.493,0.382-1.16,0.594-1.718,0.594c-1.347,0-2.681-1.148-2.681-2.984C78.543,41.469,79.548,40.401,80.8,40.401z"/>
	<path fill="#FFFFFF" d="M83.763,40.02c0.827,0.121,0.827,0.549,0.827,1.462v3.623c0,0.94-0.025,1.335-0.827,1.468v0.199h3.523
		v-0.199c-0.875-0.096-0.875-0.555-0.875-1.468v-5.472l-2.648,0.184V40.02z"/>
	<path fill="#FFFFFF" d="M86.598,37.641c0-0.825-0.626-1.155-1.113-1.155c-0.605,0-1.119,0.457-1.119,1.144
		c0,0.648,0.497,1.133,1.108,1.133C86.162,38.762,86.598,38.2,86.598,37.641z"/>
	<path fill="#FFFFFF" d="M87.605,45.163c0,0.992,0.79,1.762,2.234,1.762c0.646,0,1.424-0.157,2.059-0.57
		c0.354-0.238,0.523-0.479,0.74-0.779c0.087,0.571,0.17,0.766,0.496,1.192h2.271v-0.194c-0.662-0.158-0.94-0.457-0.94-1.697v-3.021
		c0-1.256-0.22-2.35-2.576-2.35c-0.528,0-1.026,0.058-1.53,0.158c-0.356,0.066-1.251,0.381-1.511,0.381
		c-0.262,0-0.371-0.096-0.451-0.201l-0.242,2.436l0.143,0.028c0.226-0.519,0.88-1.906,2.864-1.906c0.318,0,0.968,0.044,1.261,0.526
		c0.149,0.255,0.149,0.486,0.149,1.109C90.211,42.475,87.605,43.174,87.605,45.163z M92.596,42.7c0,0.885-0.025,1.67-0.33,2.223
		c-0.327,0.582-1.003,0.984-1.673,0.984c-0.711,0-1.066-0.547-1.066-0.984C89.527,44.094,90.266,43.176,92.596,42.7z"/>
	<path fill="#FFFFFF" d="M95.611,37.282v0.204c0.877,0.099,0.877,0.569,0.877,1.466v6.153c0,0.952-0.03,1.328-0.815,1.468v0.195
		h3.521v-0.195c-0.87-0.096-0.87-0.553-0.87-1.468v-8.149L95.611,37.282z"/>
	<path fill="#FFFFFF" d="M103.692,46.487v0.282h6.97c0.151,0,0.262,0.03,0.354,0.079c0.078,0.033,0.155,0.091,0.194,0.148
		l1.224-3.709l-0.2-0.102c-0.168,0.312-0.455,0.885-1.255,1.646c-0.462,0.42-1.314,1.102-2.831,1.102
		c-1.451,0-1.487-0.609-1.487-1.521V41.1h0.76c1.608,0,1.97,0.711,2.4,1.589l0.198-0.04l-0.595-3.516l-0.202,0.033
		c-0.026,0.852-0.334,1.08-1.424,1.08h-1.139v-0.879c0-0.755,0.154-1.227,1.301-1.227c2.299,0,3.135,1.582,3.451,2.201l0.198-0.084
		l-0.686-3.184c-0.155,0.129-0.25,0.211-0.766,0.211h-6.466v0.287c0.767,0.158,0.849,0.436,0.849,1.575v5.759
		C104.54,46.045,104.458,46.329,103.692,46.487z"/>
	<path fill="#FFFFFF" d="M112.496,46.575v0.195h3.518v-0.195c-0.861-0.113-0.845-0.553-0.845-1.468v-1.921
		c0-1.764,1.219-2.471,1.934-2.471c0.309,0,0.619,0.199,0.765,0.455c0.139,0.271,0.166,0.736,0.166,1.067v2.868
		c0,0.896,0,1.337-0.812,1.469v0.194h3.513v-0.194c-0.859-0.097-0.859-0.554-0.859-1.469v-1.551c0-0.907,0.07-1.379,0.436-1.975
		c0.288-0.482,0.928-0.865,1.478-0.865c0.308,0,0.641,0.17,0.796,0.441c0.096,0.178,0.152,0.469,0.152,1.062v2.886
		c0,0.915,0,1.328-0.809,1.468v0.195h3.514v-0.195c-0.868-0.096-0.868-0.553-0.868-1.468h-0.005v-3.462
		c0-1.654-0.957-2.137-1.73-2.137c-1.335,0-2.505,1.095-2.966,1.552c-0.121-0.487-0.362-1.552-1.771-1.552
		c-1.157,0-2.332,0.979-2.932,1.605c-0.074-0.854-0.162-1.035-0.4-1.477l-2.271,0.184v0.201c0.843,0.125,0.843,0.551,0.843,1.466
		v3.621C113.339,46.022,113.339,46.444,112.496,46.575z"/>
	<path fill="#FFFFFF" d="M125.591,49.663v0.196h3.571v-0.196c-0.912-0.09-0.912-0.574-0.912-1.465v-1.371
		c1.365,0.045,2.7,0.072,3.819-0.387c1.014-0.412,1.8-1.549,1.8-3.008c0-0.598-0.123-1.553-0.773-2.405
		c-0.855-1.125-1.991-1.376-3.934-1.376h-3.571v0.184c0.832,0.139,0.832,0.565,0.832,1.465v6.898
		C126.423,49.133,126.389,49.529,125.591,49.663z M128.25,40.474c1.402-0.043,1.947,0.142,2.367,0.37
		c1.084,0.578,1.297,1.787,1.297,2.498c0,1.266-0.64,2.703-2.424,2.703c-0.258,0-0.612-0.018-0.958-0.297
		c-0.213-0.172-0.282-0.386-0.282-1.141V40.474z"/>
	<path fill="#FFFFFF" d="M134.384,46.573v0.195h3.559v-0.195c-0.919-0.072-0.919-0.555-0.919-1.468v-1.149
		c0-1.139,0.083-1.678,0.278-2.172c0.188-0.504,0.747-0.887,1.352-0.887c0.455,0,0.727,0.171,0.957,0.327l0.365-1.574
		c-0.084-0.017-0.396-0.065-0.582-0.065c-0.228,0-1.586,0.104-2.37,1.625c-0.044-0.795-0.098-1.066-0.376-1.576l-2.264,0.184v0.203
		c0.818,0.139,0.818,0.549,0.818,1.464v3.621C135.202,46.045,135.178,46.44,134.384,46.573z"/>
	<path fill="#FFFFFF" d="M146.202,40.4c-0.885-0.792-1.872-0.897-2.475-0.897c-2.015,0-3.965,1.32-3.965,3.682
		c0,2.037,1.58,3.742,4.406,3.742c0.949,0,1.715-0.188,1.916-0.188c0.156,0,0.243,0.044,0.367,0.146l0.793-2.514l-0.183-0.074
		c-0.136,0.303-0.299,0.668-0.655,1c-0.477,0.471-1.219,0.748-1.858,0.748c-0.977,0-2.383-0.668-2.748-2.543l5.41-1.385
		C147.096,41.691,146.939,41.049,146.202,40.4z M141.726,42.79c0-0.369,0.009-1.027,0.403-1.621c0.278-0.439,0.801-0.78,1.407-0.78
		c0.352,0,1.312,0.096,1.632,1.506L141.726,42.79z"/>
	<path fill="#FFFFFF" d="M150.396,46.146c-0.775,0-1.645-0.28-2.214-0.991c-0.368-0.477-0.466-0.916-0.537-1.256l-0.176,0.031
		l0.143,2.822c0.105-0.105,0.222-0.205,0.421-0.205c0.116,0,0.231,0.017,0.606,0.1c0.553,0.127,1.273,0.281,2.054,0.281
		c2.088,0,3.385-1.197,3.385-2.615c0-1.355-1.192-1.705-1.871-1.919l-1.541-0.457c-0.566-0.173-1.163-0.356-1.163-0.851
		c0-0.541,0.655-0.795,1.378-0.795c0.587,0,1.196,0.168,1.705,0.565c0.484,0.384,0.582,0.699,0.68,1.021l0.156-0.014l-0.096-2.188
		c-0.141,0.088-0.229,0.132-0.404,0.132c-0.178,0-0.407-0.044-0.479-0.062c-0.725-0.156-1.121-0.24-1.795-0.24
		c-2.062,0-2.977,1.051-2.977,2.09c0,1.291,1.236,1.722,2.033,1.951l1.348,0.396c0.682,0.179,1.167,0.409,1.167,0.927
		C152.218,45.477,151.62,46.146,150.396,46.146z"/>
	<path fill="#FFFFFF" d="M154.421,45.163c0,0.992,0.791,1.762,2.238,1.762c0.645,0,1.418-0.157,2.057-0.57
		c0.357-0.238,0.531-0.479,0.746-0.779c0.078,0.571,0.166,0.766,0.492,1.192h2.273v-0.194c-0.674-0.158-0.952-0.457-0.952-1.697
		v-3.021c0-1.256-0.215-2.35-2.569-2.35c-0.523,0-1.024,0.058-1.537,0.158c-0.354,0.066-1.241,0.381-1.501,0.381
		c-0.266,0-0.376-0.096-0.456-0.201l-0.238,2.436l0.138,0.028c0.233-0.519,0.888-1.906,2.869-1.906c0.321,0,0.965,0.044,1.267,0.526
		c0.145,0.255,0.145,0.486,0.145,1.109C157.038,42.475,154.421,43.174,154.421,45.163z M159.418,42.7
		c0,0.885-0.026,1.67-0.322,2.223c-0.337,0.582-1.019,0.984-1.684,0.984c-0.707,0-1.064-0.547-1.064-0.984
		C156.348,44.094,157.088,43.176,159.418,42.7z"/>
	<path fill="#FFFFFF" d="M162.58,46.573v0.195h3.561v-0.195c-0.919-0.072-0.919-0.555-0.919-1.468v-1.149
		c0-1.139,0.081-1.678,0.285-2.172c0.188-0.504,0.741-0.887,1.354-0.887c0.455,0,0.718,0.171,0.951,0.327l0.361-1.574
		c-0.081-0.017-0.401-0.065-0.58-0.065c-0.226,0-1.593,0.104-2.372,1.625c-0.039-0.795-0.097-1.066-0.367-1.576l-2.273,0.184v0.203
		c0.827,0.139,0.827,0.549,0.827,1.464v3.621C163.407,46.045,163.376,46.44,162.58,46.573z"/>
	<path fill="#FFFFFF" d="M171.189,37.641c0-0.825-0.643-1.155-1.131-1.155c-0.604,0-1.121,0.457-1.121,1.144
		c0,0.648,0.499,1.133,1.108,1.133C170.74,38.762,171.189,38.2,171.189,37.641z"/>
	<path fill="#FFFFFF" d="M168.345,46.573v0.199h3.521v-0.199c-0.888-0.096-0.888-0.555-0.888-1.468v-5.472l-2.633,0.184v0.203
		c0.82,0.121,0.82,0.549,0.82,1.462v3.623C169.165,46.045,169.134,46.44,168.345,46.573z"/>
	<path fill="#FFFFFF" d="M172.18,45.163c0,0.992,0.79,1.762,2.239,1.762c0.64,0,1.417-0.157,2.062-0.57
		c0.354-0.238,0.526-0.479,0.742-0.779c0.075,0.571,0.171,0.766,0.488,1.192h2.275v-0.194c-0.669-0.158-0.951-0.457-0.951-1.697
		v-3.021c0-1.256-0.217-2.35-2.571-2.35c-0.523,0-1.021,0.058-1.528,0.158c-0.361,0.066-1.251,0.381-1.509,0.381
		c-0.264,0-0.374-0.096-0.457-0.201l-0.235,2.436l0.14,0.028c0.228-0.519,0.885-1.906,2.863-1.906c0.321,0,0.965,0.044,1.27,0.526
		c0.145,0.255,0.145,0.486,0.145,1.109C174.794,42.475,172.18,43.174,172.18,45.163z M177.178,42.7c0,0.885-0.025,1.67-0.332,2.223
		c-0.328,0.582-1.009,0.984-1.676,0.984c-0.707,0-1.057-0.547-1.057-0.984C174.114,44.094,174.841,43.176,177.178,42.7z"/>
</g>
</svg>
