<?xml version="1.0" encoding="utf-8"?>
<!-- Generator: Adobe Illustrator 21.0.0, SVG Export Plug-In . SVG Version: 6.00 Build 0)  -->
<svg version="1.1" id="Layer_1" xmlns="http://www.w3.org/2000/svg" xmlns:xlink="http://www.w3.org/1999/xlink" x="0px" y="0px"
	 viewBox="0 0 202.8 98.9" style="enable-background:new 0 0 202.8 98.9;" xml:space="preserve">
<style type="text/css">
	.st0{fill:#165CA2;}
	.st1{fill:#808083;}
</style>
<g>
	<g>
		<path class="st0" d="M43.6,13.7c-0.2,0-0.4,0.1-0.6,0.2c-1.3,0.8-2.5,1.6-3.8,2.5c-0.2,0.1-0.4,0.4-0.5,0.6c0,0,0,0,0,0.1
			c0,0,0,0,0,0c-0.4,0.7-0.4,0.7-1.1,0.3c-1-0.5-1.4-0.5-2.3,0.2c-0.2,0.1-0.5,0.2-0.7,0.2c-0.7-0.3-1.5-0.6-2.1-1
			c-0.2-0.1-0.3-0.2-0.5-0.4c-0.3-0.3-0.3-0.7,0-1.2c0.1-0.2,0.2-0.3,0.3-0.5c0.3-0.5,0.7-1.1,1-1.6c1.1-1.6,0.9-2.6-0.8-3.6
			c-0.1-0.1-0.3-0.2-0.4-0.2c-0.6-0.3-1.3-0.6-1.9-1c-1.3-0.9-2.7-1.5-4.2-1.5c-1.2-0.1-2-0.6-2.5-1.7c-0.6-1.2-1.3-2.3-2.3-3.1
			c-0.4-0.3-0.7-0.5-1.2-0.7c-0.1-0.1-0.2-0.2-0.3-0.3C18.7-0.1,17.9,0,17,1c-0.4,0.4-0.7,0.9-1,1.4c-0.1-0.3-0.1-0.6-0.2-0.8
			c-0.2-1-0.9-1.4-1.9-1c-0.1,0.1-0.3,0.1-0.4,0.2c-0.2,0.1-0.5,0.2-0.7,0.4c-0.4,0.2-0.6,0.2-0.9-0.1C11.5,0.5,10.8,0,9.9,0
			C9.1,0,8.6,0.5,8.6,1.3c0,0.4,0,0.9-0.1,1.3c0,0.3-0.2,0.5-0.3,0.7C8,3.6,7.8,3.9,7.8,4.1C7.7,4.8,7.7,5.4,7.6,6
			c0,0.1,0,0.1,0,0.2C7.5,6.9,7.1,7.3,6.4,7.4C6.1,7.5,5.7,7.6,5.4,7.7C4.7,7.9,4.3,8.3,4.3,9c0,0.3,0,0.6,0,0.9c0,1.5,0,3,0.2,4.5
			C4.6,15.7,4.6,16.9,4,18C4,18,4,18.1,3.9,18.2c-0.3,0.6-0.7,1.1-1,1.7c-0.2,0.3-0.4,0.6-0.5,0.9c-0.4,0.6-0.7,1.2-1,1.8
			c-0.3,0.6-0.4,1.2,0,1.9c0.1,0.2,0.1,0.5,0.1,0.7c-0.1,0.8-0.4,1.5-0.8,2.2c-0.3,0.4-0.5,0.9-0.5,1.4c-0.1,0.9,0.1,1.7,0.5,2.5
			C0.8,31.6,1,32,1.3,32.4c0.3,0.5,0.6,0.9,0.9,1.4c0.6,1.1,1.1,2.2,0.4,3.4c-0.5,0.8-1,1.5-0.9,2.6c0.1,0.5,0,1,0.1,1.4
			C2,41.7,2,42.3,1.8,42.8c-0.1,0.2-0.2,0.5-0.3,0.7C1.3,43.7,1.1,44,1,44.3c-0.8,1.3-0.7,3.4,0.3,4.6c0.5,0.6,0.5,0.8,0.1,1.4
			c-0.7,1-0.9,2-0.6,3.2c0,0.2,0,0.4,0,0.6c-0.2,1.2-0.4,2.4-0.6,3.7c0,0.1,0,0.1,0,0.2c0,0.6,0.1,1.1,0.7,1.5
			c0.3,0.2,0.4,0.4,0.4,0.6c0,0.2-0.1,0.3-0.2,0.5c-0.1,0.1-0.1,0.2-0.2,0.3c-0.7,1.2-0.3,2.9,1,3.6c-0.2,0.9-0.6,1.9,0.3,2.4
			c-0.3,0.2-0.6,0.4-0.8,0.7c-0.2,0.4,0.2,0.7,0.5,0.9c0.2,0.1,0.3,0.2,0.5,0.3c0.7,0.5,0.8,1.1,0.7,1.9c-0.1,0.4-0.1,0.8-0.1,1.2
			c0,0.6-0.1,1.2-0.1,1.8c0,0.5,0,1.1-0.1,1.6c-0.1,0.5-0.4,1-0.5,1.4c-0.3,0.8-0.5,1.6,0.3,2.1c-0.8,1.1-1.4,2.2-1.8,3.4
			c-0.1,0.4,0,0.8,0.4,1.1c0.5,0.4,1,0.9,1.1,1.7c0.1,0.7,0.2,0.9,1,1c0.6,0.1,1.3,0,1.9,0.1c0.7,0.1,0.8,0.3,0.5,0.9
			c-0.3,0.6-0.7,1.2-1,1.8c-0.3,0.7-0.1,1,0.6,1.1c1.1,0.1,2.3,0.1,3.4,0.2c0.8,0,1.5,0,2.2,0.6c0.5,0.4,0.9,0.1,1-0.5
			c0-0.3,0-0.6-0.1-0.9c-0.1-0.9-0.6-1.5-1.1-2.2c-0.3-0.4-0.3-0.7,0-1.1c0.2-0.3,0.4-0.7,0.7-1c0.3-0.3,0.7-0.5,1-0.5
			c0.5-0.1,0.8-0.3,0.9-0.8c0.1-0.6,0.2-1.2,0.1-1.7c-0.1-1.4,0.6-2.4,1.7-3.2c0.4-0.3,0.8-0.7,1.1-1.1c0.9-1.4,0-3-1.6-3
			c-1,0-1.6-0.5-2.1-1.3c-0.3-0.5-0.5-1,0-1.4c0,0,0.1,0,0.1-0.1c0.1-0.1,0.1-0.2,0.1-0.2c0.5-1.2,1.3-1.8,2.6-1.8
			c0.4,0,0.7-0.2,0.6-0.7c0-0.7,0.2-1.2,0.7-1.7c0.7-0.7,0.7-1,0-1.7c-0.5-0.6-0.6-1.6-0.2-2.3c0.3-0.5,0.6-1.1,0.8-1.6
			c0.2-0.6,0.2-1.2-0.2-1.6c0,0-0.1-0.1-0.1-0.1c-0.8-0.7-0.8-1.5-0.4-2.5c0.4,0.2,0.7,0.3,1.1,0.5c0.5,0.2,0.9,0.5,1.4,0.5
			c0.8,0,1.6,0,2.4-0.2c0.4-0.1,0.8-0.2,1-0.4c0.4-0.4,0.4-0.9,0.2-1.6c-0.2-0.5-0.2-1,0.2-1.4c0.6-0.7,0.7-1.4,0.4-2.3
			c-0.1-0.4-0.1-0.8-0.2-1.3c0.2,0,0.4,0,0.5,0c0.9,0.2,1.7,0.3,2.6,0.5c0.8,0.2,1.7,0.3,2.5,0c2-0.7,3.7-1.8,5.1-3.4
			c0.4-0.5,0.7-1.1,1.4-1.4c0.1-0.1,0.2-0.2,0.2-0.3c0-1,0.5-1.7,0.9-2.6c0.2-0.4,0.1-0.8-0.2-1.2c-0.3-0.4-0.7-0.9-0.7-1.3
			c-0.1-1.1-0.6-1.8-1.5-2.3c-0.9-0.5-1.2-1.5-1.8-2.3c-0.1-0.2-0.1-0.5,0-0.8c0.1-0.3,0.2-0.5,0.3-0.8c0.1-0.2,0.1-0.3,0.2-0.5
			c0.3-0.6,0.4-1.3,0.2-2c-0.1-0.4-0.2-0.8-0.1-1.2c0.4-2,1-3.8,2.1-5.5c0.3-0.5,0.7-0.9,1.1-1.4c0.2-0.2,0.5-0.5,0.6-0.8
			c0.3-0.5,0.4-0.9,0.7-1.4c0.2-0.4,0.4-0.8,0.7-1.1c0.4-0.4,0.9-0.6,1.3-1c0.5-0.4,1-0.7,1.4-1.1c0,0,0.1-0.1,0.1-0.1
			c0.5-0.6,1.1-1,1.8-1.4c0.7-0.3,1.4-0.7,2.1-1c0.5-0.3,0.9-0.7,0.9-1.4c0-0.2,0.1-0.4,0.1-0.6C45.4,14,44.8,13.6,43.6,13.7z"/>
		<path class="st0" d="M17.8,96.8c-0.9-0.4-1.8-0.7-2.7-1.1c-0.5-0.2-0.8-0.5-1.1-1c-0.2-0.3-0.4-0.7-0.8-0.8
			c-0.7-0.3-0.8-0.8-0.8-1.4c0-0.1,0-0.3,0-0.4c-0.1-0.5-0.5-0.7-1.3-0.6c-0.6,0.1-0.8,0.2-0.7,0.8c0.1,0.7,0.1,1.5,0.3,2.2
			c0.2,1,0.5,1.9,0.8,2.8c0.2,0.7,0.8,1.1,1.6,1.2c0.9,0.1,1.9,0.2,3,0.3c0.6-0.1,1.4-0.2,2.2-0.4c0.3-0.1,0.5-0.5,0.8-0.8
			c-0.2-0.2-0.5-0.5-0.7-0.6C18.2,96.9,18,96.9,17.8,96.8z"/>
	</g>
	<g>
		<path class="st1" d="M58.9,26.1h5.5c3.3,0,5.5,1.8,5.5,4.7v0c0,3.2-2.7,4.8-5.8,4.8h-3.6v5.2h-1.7V26.1z M64.2,34.2
			c2.5,0,4.1-1.3,4.1-3.3v0c0-2.1-1.6-3.2-4-3.2h-3.7v6.5H64.2z"/>
		<path class="st1" d="M72.2,30h1.6v2.9c0.8-1.8,2.4-3.1,4.5-3v1.8h-0.1c-2.4,0-4.3,1.7-4.3,5v4.4h-1.6V30z"/>
		<path class="st1" d="M84.6,39.8c1.5,0,2.6-0.6,3.4-1.5l1,0.9c-1.1,1.2-2.4,2.1-4.5,2.1c-3,0-5.5-2.3-5.5-5.7
			c0-3.2,2.2-5.7,5.2-5.7c3.2,0,5.1,2.6,5.1,5.8c0,0.1,0,0.3,0,0.6h-8.7C81,38.4,82.7,39.8,84.6,39.8z M87.8,34.8
			c-0.2-2-1.3-3.7-3.5-3.7c-1.9,0-3.3,1.6-3.6,3.7H87.8z"/>
		<path class="st1" d="M90.8,39.5l0.8-1.2c1.2,0.9,2.5,1.4,3.8,1.4c1.3,0,2.3-0.7,2.3-1.7v0c0-1.1-1.3-1.5-2.7-1.9
			c-1.7-0.5-3.6-1.1-3.6-3.1v0c0-1.9,1.6-3.1,3.7-3.1c1.3,0,2.8,0.5,3.9,1.2l-0.7,1.2c-1-0.7-2.2-1.1-3.2-1.1
			c-1.3,0-2.1,0.7-2.1,1.6v0c0,1,1.4,1.4,2.8,1.9c1.7,0.5,3.5,1.2,3.5,3.1v0c0,2.1-1.7,3.3-3.9,3.3C93.8,41.2,92.1,40.5,90.8,39.5z"
			/>
		<path class="st1" d="M106.6,39.8c1.5,0,2.6-0.6,3.4-1.5l1,0.9c-1.1,1.2-2.4,2.1-4.5,2.1c-3,0-5.5-2.3-5.5-5.7
			c0-3.2,2.2-5.7,5.2-5.7c3.2,0,5.1,2.6,5.1,5.8c0,0.1,0,0.3,0,0.6h-8.7C103,38.4,104.7,39.8,106.6,39.8z M109.8,34.8
			c-0.2-2-1.3-3.7-3.5-3.7c-1.9,0-3.3,1.6-3.6,3.7H109.8z"/>
		<path class="st1" d="M113.7,30h1.6v1.9c0.7-1.2,1.9-2.1,3.7-2.1c2.6,0,4.2,1.8,4.2,4.4v6.8h-1.6v-6.4c0-2-1.1-3.3-3-3.3
			c-1.9,0-3.3,1.4-3.3,3.4v6.3h-1.6V30z"/>
		<path class="st1" d="M125.6,35.5L125.6,35.5c0-3.1,2.4-5.8,5.6-5.8c2.1,0,3.4,0.9,4.4,1.9l-1.1,1.1c-0.9-0.9-1.8-1.6-3.3-1.6
			c-2.2,0-3.9,1.9-3.9,4.2v0c0,2.4,1.7,4.3,4,4.3c1.4,0,2.5-0.7,3.3-1.6l1,1c-1.1,1.2-2.4,2.1-4.5,2.1
			C128,41.2,125.6,38.6,125.6,35.5z"/>
		<path class="st1" d="M137.8,25.8h1.9v1.8h-1.9V25.8z M137.9,30h1.6v10.9h-1.6V30z"/>
		<path class="st1" d="M142,37.8L142,37.8c0-2.4,1.9-3.6,4.7-3.6c1.4,0,2.4,0.2,3.3,0.5v-0.3c0-1.9-1.2-3-3.2-3
			c-1.3,0-2.3,0.3-3.3,0.8l-0.5-1.3c1.2-0.5,2.4-0.9,4-0.9c1.5,0,2.8,0.4,3.5,1.2c0.8,0.8,1.1,1.8,1.1,3.2v6.7H150v-1.6
			c-0.8,1-2,1.9-3.9,1.9C144,41.2,142,40,142,37.8z M150,36.9v-1c-0.8-0.2-1.9-0.5-3.2-0.5c-2,0-3.2,0.9-3.2,2.2v0
			c0,1.4,1.3,2.2,2.7,2.2C148.4,39.9,150,38.7,150,36.9z"/>
		<path class="st1" d="M63.4,60.9c1.5,0,2.6-0.6,3.4-1.5l1,0.9c-1.1,1.2-2.4,2.1-4.5,2.1c-3,0-5.5-2.3-5.5-5.7
			c0-3.2,2.2-5.7,5.2-5.7c3.2,0,5.1,2.6,5.1,5.8c0,0.1,0,0.3,0,0.6h-8.7C59.8,59.6,61.5,60.9,63.4,60.9z M66.6,56
			c-0.2-2-1.3-3.7-3.5-3.7c-1.9,0-3.3,1.6-3.6,3.7H66.6z"/>
		<path class="st1" d="M70.6,51.2h1.6v1.9c0.7-1.2,1.9-2.1,3.7-2.1c2.6,0,4.2,1.8,4.2,4.4v6.8h-1.6v-6.4c0-2-1.1-3.3-3-3.3
			c-1.9,0-3.3,1.4-3.3,3.4v6.3h-1.6V51.2z"/>
		<path class="st1" d="M89.5,59.2v-6.6h-1.5v-1.4h1.5v-3.3h1.6v3.3h3.5v1.4h-3.5V59c0,1.3,0.7,1.8,1.8,1.8c0.5,0,1-0.1,1.6-0.4v1.4
			c-0.6,0.3-1.2,0.5-2,0.5C90.8,62.3,89.5,61.4,89.5,59.2z"/>
		<path class="st1" d="M95.9,56.7L95.9,56.7c0-3.1,2.4-5.8,5.7-5.8c3.3,0,5.7,2.6,5.7,5.7v0c0,3.1-2.4,5.7-5.7,5.7
			C98.3,62.3,95.9,59.8,95.9,56.7z M105.6,56.7L105.6,56.7c0-2.4-1.8-4.3-4.1-4.3c-2.4,0-4,1.9-4,4.2v0c0,2.3,1.7,4.3,4,4.3
			C104,60.9,105.6,59,105.6,56.7z"/>
		<path class="st1" d="M109.1,56.7L109.1,56.7c0-3.6,2.6-5.7,5.2-5.7c2,0,3.3,1.1,4.2,2.3v-6.6h1.6v15.4h-1.6v-2.2
			c-0.9,1.3-2.2,2.4-4.2,2.4C111.7,62.3,109.1,60.3,109.1,56.7z M118.6,56.6L118.6,56.6c0-2.6-1.9-4.3-4-4.3c-2.1,0-3.8,1.6-3.8,4.2
			v0c0,2.6,1.8,4.2,3.8,4.2C116.6,60.9,118.6,59.2,118.6,56.6z"/>
		<path class="st1" d="M122.6,56.7L122.6,56.7c0-3.1,2.4-5.8,5.7-5.8c3.3,0,5.7,2.6,5.7,5.7v0c0,3.1-2.4,5.7-5.7,5.7
			C125,62.3,122.6,59.8,122.6,56.7z M132.3,56.7L132.3,56.7c0-2.4-1.8-4.3-4.1-4.3c-2.4,0-4,1.9-4,4.2v0c0,2.3,1.7,4.3,4,4.3
			C130.6,60.9,132.3,59,132.3,56.7z"/>
		<path class="st1" d="M147,60.9c1.5,0,2.6-0.6,3.4-1.5l1,0.9c-1.1,1.2-2.4,2.1-4.5,2.1c-3,0-5.5-2.3-5.5-5.7c0-3.2,2.2-5.7,5.2-5.7
			c3.2,0,5.1,2.6,5.1,5.8c0,0.1,0,0.3,0,0.6h-8.7C143.4,59.6,145.1,60.9,147,60.9z M150.2,56c-0.2-2-1.3-3.7-3.5-3.7
			c-1.9,0-3.3,1.6-3.6,3.7H150.2z"/>
		<path class="st1" d="M154.3,46.7h1.6v15.4h-1.6V46.7z"/>
		<path class="st1" d="M165,51.2h1.6v2.2c0.9-1.3,2.2-2.4,4.2-2.4c2.6,0,5.2,2.1,5.2,5.7v0c0,3.6-2.6,5.7-5.2,5.7
			c-2,0-3.3-1.1-4.2-2.3v5.5H165V51.2z M174.4,56.7L174.4,56.7c0-2.6-1.8-4.3-3.8-4.3c-2,0-4,1.7-4,4.2v0c0,2.5,1.9,4.2,4,4.2
			C172.7,60.9,174.4,59.3,174.4,56.7z"/>
		<path class="st1" d="M177.7,58.9L177.7,58.9c0-2.4,1.9-3.6,4.7-3.6c1.4,0,2.4,0.2,3.3,0.5v-0.3c0-1.9-1.2-3-3.2-3
			c-1.3,0-2.3,0.3-3.3,0.8l-0.5-1.3c1.2-0.5,2.4-0.9,4-0.9c1.5,0,2.8,0.4,3.5,1.2c0.8,0.8,1.1,1.8,1.1,3.2v6.7h-1.6v-1.6
			c-0.8,1-2,1.9-3.9,1.9C179.8,62.3,177.7,61.2,177.7,58.9z M185.8,58.1v-1c-0.8-0.2-1.9-0.5-3.2-0.5c-2,0-3.2,0.9-3.2,2.2v0
			c0,1.4,1.3,2.2,2.7,2.2C184.1,61,185.8,59.8,185.8,58.1z"/>
		<path class="st1" d="M190.4,51.2h1.6v10.9h-1.6V51.2z M192.6,46.4l1.7,0.8l-2.4,2.3h-1.3L192.6,46.4z"/>
		<path class="st1" d="M194.4,60.7l0.8-1.2c1.2,0.9,2.5,1.4,3.8,1.4c1.3,0,2.3-0.7,2.3-1.7v0c0-1.1-1.3-1.5-2.7-1.9
			c-1.7-0.5-3.6-1.1-3.6-3.1v0c0-1.9,1.6-3.1,3.7-3.1c1.3,0,2.8,0.5,3.9,1.2l-0.7,1.2c-1-0.7-2.2-1.1-3.2-1.1
			c-1.3,0-2.1,0.7-2.1,1.6v0c0,1,1.4,1.4,2.8,1.9c1.7,0.5,3.5,1.2,3.5,3.1v0c0,2.1-1.7,3.3-3.9,3.3
			C197.4,62.3,195.6,61.7,194.4,60.7z"/>
	</g>
</g>
</svg>
