<?xml version="1.0" encoding="utf-8"?>
<!-- Generator: Adobe Illustrator 16.0.0, SVG Export Plug-In . SVG Version: 6.00 Build 0)  -->
<!DOCTYPE svg PUBLIC "-//W3C//DTD SVG 1.1//EN" "http://www.w3.org/Graphics/SVG/1.1/DTD/svg11.dtd">
<svg version="1.1" id="Layer_1" xmlns="http://www.w3.org/2000/svg" xmlns:xlink="http://www.w3.org/1999/xlink" x="0px" y="0px"
	 width="100px" height="100px" viewBox="0 0 100 100" enable-background="new 0 0 100 100" xml:space="preserve">
<g>
	<g>
		<path fill="#0957A4" d="M65.483,10.309H25.53c-2.683,0-4.866,2.187-4.866,4.869v69.646c0,2.683,2.184,4.867,4.866,4.867H74.47
			c2.685,0,4.866-2.185,4.866-4.867V25.361L65.483,10.309z M75.248,84.821c0,0.43-0.352,0.781-0.779,0.781H25.53
			c-0.43,0-0.78-0.352-0.78-0.781V15.178c0-0.431,0.351-0.778,0.78-0.778h37.011v11.837c0,1.129,0.92,2.042,2.046,2.042h10.661
			V84.821z M31.963,34.973h34.715c0.844,0,1.53,0.687,1.53,1.532c0,0.845-0.687,1.53-1.53,1.53H31.963
			c-0.847,0-1.532-0.686-1.532-1.53C30.431,35.659,31.116,34.973,31.963,34.973z M68.208,46.798c0,0.845-0.687,1.53-1.53,1.53
			H31.963c-0.847,0-1.532-0.686-1.532-1.53c0-0.847,0.686-1.532,1.532-1.532h34.715C67.521,45.266,68.208,45.951,68.208,46.798z
			 M68.208,56.751c0,0.847-0.687,1.532-1.53,1.532H31.963c-0.847,0-1.532-0.686-1.532-1.532c0-0.846,0.686-1.531,1.532-1.531h34.715
			C67.521,55.22,68.208,55.905,68.208,56.751z M68.208,66.876c0,0.845-0.687,1.53-1.53,1.53H31.963c-0.847,0-1.532-0.686-1.532-1.53
			c0-0.847,0.686-1.532,1.532-1.532h34.715C67.521,65.344,68.208,66.029,68.208,66.876z"/>
	</g>
</g>
</svg>
