<?xml version="1.0" encoding="utf-8"?>
<!-- Generator: Adobe Illustrator 21.0.0, SVG Export Plug-In . SVG Version: 6.00 Build 0)  -->
<svg version="1.1" id="Layer_1" xmlns="http://www.w3.org/2000/svg" xmlns:xlink="http://www.w3.org/1999/xlink" x="0px" y="0px"
	 viewBox="0 0 194.5 71.3" style="enable-background:new 0 0 194.5 71.3;" xml:space="preserve">
<style type="text/css">
	.st0{fill:#808083;}
	.st1{fill:#165CA2;}
</style>
<g>
	<g>
		<path class="st0" d="M65.9,14.3h1.7l5.4,8.1l5.4-8.1h1.7v14.8h-1.7v-12L73,25.1h-0.1l-5.4-7.9v12h-1.6V14.3z"/>
		<path class="st0" d="M82.6,26L82.6,26c0-2.4,1.9-3.6,4.7-3.6c1.4,0,2.4,0.2,3.3,0.5v-0.3c0-1.9-1.2-3-3.2-3
			c-1.3,0-2.3,0.3-3.3,0.8L83.6,19c1.2-0.5,2.4-0.9,4-0.9c1.5,0,2.8,0.4,3.5,1.2c0.8,0.8,1.1,1.8,1.1,3.2v6.7h-1.6v-1.6
			c-0.8,1-2,1.9-3.9,1.9C84.7,29.4,82.6,28.2,82.6,26z M90.7,25.1v-1c-0.8-0.2-1.9-0.5-3.2-0.5c-2,0-3.2,0.9-3.2,2.2v0
			c0,1.4,1.3,2.2,2.7,2.2C89.1,28.1,90.7,26.8,90.7,25.1z M89.1,13.5l1.7,0.8l-2.4,2.3h-1.3L89.1,13.5z"/>
		<path class="st0" d="M94.3,27.7l0.8-1.2c1.2,0.9,2.5,1.4,3.8,1.4c1.3,0,2.3-0.7,2.3-1.7v0c0-1.1-1.3-1.5-2.7-1.9
			c-1.7-0.5-3.6-1.1-3.6-3.1v0c0-1.9,1.6-3.1,3.7-3.1c1.3,0,2.8,0.5,3.9,1.2l-0.7,1.2c-1-0.7-2.2-1.1-3.2-1.1
			c-1.3,0-2.1,0.7-2.1,1.6v0c0,1,1.4,1.4,2.8,1.9c1.7,0.5,3.5,1.2,3.5,3.1v0c0,2.1-1.7,3.3-3.9,3.3C97.2,29.3,95.5,28.7,94.3,27.7z"
			/>
		<path class="st0" d="M110.4,23.7L110.4,23.7c0-3.6,2.6-5.7,5.2-5.7c2,0,3.3,1.1,4.2,2.3v-6.6h1.6v15.4h-1.6v-2.2
			c-0.9,1.3-2.2,2.4-4.2,2.4C113,29.4,110.4,27.3,110.4,23.7z M119.9,23.7L119.9,23.7c0-2.6-1.9-4.3-4-4.3c-2.1,0-3.8,1.6-3.8,4.2v0
			c0,2.6,1.8,4.2,3.8,4.2C117.9,27.9,119.9,26.2,119.9,23.7z"/>
		<path class="st0" d="M129.3,28c1.5,0,2.6-0.6,3.4-1.5l1,0.9c-1.1,1.2-2.4,2.1-4.5,2.1c-3,0-5.5-2.3-5.5-5.7c0-3.2,2.2-5.7,5.2-5.7
			c3.2,0,5.1,2.6,5.1,5.8c0,0.1,0,0.3,0,0.6h-8.7C125.7,26.6,127.4,28,129.3,28z M132.5,23c-0.2-2-1.3-3.7-3.5-3.7
			c-1.9,0-3.3,1.6-3.6,3.7H132.5z"/>
		<path class="st0" d="M143.7,27.9c-1.2-1.2-1.9-2.7-1.9-5.7v0c0-4.5,2.3-8,6.2-8c1.8,0,3.1,0.6,4.4,1.7l-1,1.3
			c-1.1-0.9-2.1-1.5-3.5-1.5c-2.7,0-4.4,2.7-4.3,6.5c0.8-1.2,2.1-2.3,4.2-2.3c2.8,0,5.1,1.8,5.1,4.5v0c0,2.9-2.3,4.9-5.3,4.9
			C145.9,29.4,144.6,28.8,143.7,27.9z M151.2,24.5L151.2,24.5c0-1.9-1.5-3.2-3.6-3.2c-2.2,0-3.7,1.6-3.7,3.2v0
			c0,1.9,1.6,3.3,3.7,3.3C149.8,27.9,151.2,26.4,151.2,24.5z"/>
		<path class="st0" d="M154.8,27l1.1-1.2c1.3,1.2,2.7,2,4.2,2c2.1,0,3.6-1.4,3.6-3.3v0c0-1.8-1.5-3.1-3.7-3.1
			c-1.2,0-2.2,0.4-3.1,0.8l-1.1-0.7l0.4-7.2h8.5v1.5h-7.1l-0.3,4.7c0.9-0.4,1.7-0.7,2.9-0.7c2.9,0,5.1,1.7,5.1,4.5v0
			c0,2.9-2.2,4.9-5.3,4.9C158,29.4,156.1,28.4,154.8,27z"/>
		<path class="st0" d="M167.4,21.8L167.4,21.8c0-4.2,2.5-7.7,6.3-7.7c3.8,0,6.2,3.5,6.2,7.6v0c0,4.1-2.5,7.7-6.3,7.7
			C169.8,29.4,167.4,25.9,167.4,21.8z M178.2,21.8L178.2,21.8c0-3.3-1.8-6.2-4.5-6.2c-2.8,0-4.5,2.8-4.5,6.1v0
			c0,3.2,1.8,6.1,4.5,6.1S178.2,25,178.2,21.8z"/>
		<path class="st0" d="M182,21.8L182,21.8c0-4.2,2.5-7.7,6.3-7.7c3.8,0,6.2,3.5,6.2,7.6v0c0,4.1-2.5,7.7-6.3,7.7
			C184.4,29.4,182,25.9,182,21.8z M192.8,21.8L192.8,21.8c0-3.3-1.8-6.2-4.5-6.2c-2.8,0-4.5,2.8-4.5,6.1v0c0,3.2,1.8,6.1,4.5,6.1
			S192.8,25,192.8,21.8z"/>
		<path class="st0" d="M65.6,39.4h1.6v2.2c0.9-1.3,2.2-2.4,4.2-2.4c2.6,0,5.2,2.1,5.2,5.7v0c0,3.6-2.6,5.7-5.2,5.7
			c-2,0-3.3-1.1-4.2-2.3v5.5h-1.6V39.4z M75,44.8L75,44.8c0-2.6-1.8-4.3-3.8-4.3c-2,0-4,1.7-4,4.2v0c0,2.5,1.9,4.2,4,4.2
			C73.3,49.1,75,47.5,75,44.8z"/>
		<path class="st0" d="M79.2,39.4h1.6v2.9c0.8-1.8,2.4-3.1,4.5-3v1.8h-0.1c-2.4,0-4.3,1.7-4.3,5v4.4h-1.6V39.4z"/>
		<path class="st0" d="M91.6,49.1c1.5,0,2.6-0.6,3.4-1.5l1,0.9c-1.1,1.2-2.4,2.1-4.5,2.1c-3,0-5.5-2.3-5.5-5.7
			c0-3.2,2.2-5.7,5.2-5.7c3.2,0,5.1,2.6,5.1,5.8c0,0.1,0,0.3,0,0.6h-8.7C87.9,47.8,89.6,49.1,91.6,49.1z M94.7,44.2
			c-0.2-2-1.3-3.7-3.5-3.7c-1.9,0-3.3,1.6-3.6,3.7H94.7z"/>
		<path class="st0" d="M97.8,48.9l0.8-1.2c1.2,0.9,2.5,1.4,3.8,1.4c1.3,0,2.3-0.7,2.3-1.7v0c0-1.1-1.3-1.5-2.7-1.9
			c-1.7-0.5-3.6-1.1-3.6-3.1v0c0-1.9,1.6-3.1,3.7-3.1c1.3,0,2.8,0.5,3.9,1.2l-0.7,1.2c-1-0.7-2.2-1.1-3.2-1.1
			c-1.3,0-2.1,0.7-2.1,1.6v0c0,1,1.4,1.4,2.8,1.9c1.7,0.5,3.5,1.2,3.5,3.1v0c0,2.1-1.7,3.3-3.9,3.3C100.8,50.5,99,49.9,97.8,48.9z"
			/>
		<path class="st0" d="M109.1,47.4v-6.6h-1.5v-1.4h1.5v-3.3h1.6v3.3h3.5v1.4h-3.5v6.4c0,1.3,0.7,1.8,1.8,1.8c0.5,0,1-0.1,1.6-0.4V50
			c-0.6,0.3-1.2,0.5-2,0.5C110.4,50.5,109.1,49.6,109.1,47.4z"/>
		<path class="st0" d="M115.7,47.1L115.7,47.1c0-2.4,1.9-3.6,4.7-3.6c1.4,0,2.4,0.2,3.3,0.5v-0.3c0-1.9-1.2-3-3.2-3
			c-1.3,0-2.3,0.3-3.3,0.8l-0.5-1.3c1.2-0.5,2.4-0.9,4-0.9c1.5,0,2.8,0.4,3.5,1.2c0.8,0.8,1.1,1.8,1.1,3.2v6.7h-1.6v-1.6
			c-0.8,1-2,1.9-3.9,1.9C117.7,50.5,115.7,49.4,115.7,47.1z M123.7,46.3v-1c-0.8-0.2-1.9-0.5-3.2-0.5c-2,0-3.2,0.9-3.2,2.2v0
			c0,1.4,1.3,2.2,2.7,2.2C122.1,49.2,123.7,48,123.7,46.3z"/>
		<path class="st0" d="M127.6,44.8L127.6,44.8c0-3.6,2.6-5.7,5.2-5.7c2,0,3.3,1.1,4.2,2.3v-6.6h1.6v15.4H137v-2.2
			c-0.9,1.3-2.2,2.4-4.2,2.4C130.2,50.5,127.6,48.4,127.6,44.8z M137.1,44.8L137.1,44.8c0-2.6-1.9-4.3-4-4.3c-2.1,0-3.8,1.6-3.8,4.2
			v0c0,2.6,1.8,4.2,3.8,4.2C135.2,49.1,137.1,47.3,137.1,44.8z"/>
		<path class="st0" d="M141.1,44.9L141.1,44.9c0-3.1,2.4-5.8,5.7-5.8c3.3,0,5.7,2.6,5.7,5.7v0c0,3.1-2.4,5.7-5.7,5.7
			C143.5,50.5,141.1,48,141.1,44.9z M150.8,44.9L150.8,44.9c0-2.4-1.8-4.3-4.1-4.3c-2.4,0-4,1.9-4,4.2v0c0,2.3,1.7,4.3,4,4.3
			C149.2,49.1,150.8,47.2,150.8,44.9z"/>
		<path class="st0" d="M154.9,39.4h1.6v2.9c0.8-1.8,2.4-3.1,4.5-3v1.8h-0.1c-2.4,0-4.3,1.7-4.3,5v4.4h-1.6V39.4z"/>
		<path class="st0" d="M167.3,49.1c1.5,0,2.6-0.6,3.4-1.5l1,0.9c-1.1,1.2-2.4,2.1-4.5,2.1c-3,0-5.5-2.3-5.5-5.7
			c0-3.2,2.2-5.7,5.2-5.7c3.2,0,5.1,2.6,5.1,5.8c0,0.1,0,0.3,0,0.6h-8.7C163.7,47.8,165.4,49.1,167.3,49.1z M170.5,44.2
			c-0.2-2-1.3-3.7-3.5-3.7c-1.9,0-3.3,1.6-3.6,3.7H170.5z"/>
		<path class="st0" d="M173.6,48.9l0.8-1.2c1.2,0.9,2.5,1.4,3.8,1.4c1.3,0,2.3-0.7,2.3-1.7v0c0-1.1-1.3-1.5-2.7-1.9
			c-1.7-0.5-3.6-1.1-3.6-3.1v0c0-1.9,1.6-3.1,3.7-3.1c1.3,0,2.8,0.5,3.9,1.2l-0.7,1.2c-1-0.7-2.2-1.1-3.2-1.1
			c-1.3,0-2.1,0.7-2.1,1.6v0c0,1,1.4,1.4,2.8,1.9c1.7,0.5,3.5,1.2,3.5,3.1v0c0,2.1-1.7,3.3-3.9,3.3
			C176.5,50.5,174.8,49.9,173.6,48.9z"/>
	</g>
	<g>
		<path class="st1" d="M34.7,19.3h-7v-7c0-0.3-0.2-0.5-0.5-0.5h-6.7c-0.3,0-0.5,0.2-0.5,0.5v7h-7c-0.3,0-0.5,0.2-0.5,0.5v6.7
			c0,0.3,0.2,0.5,0.5,0.5h7v7c0,0.3,0.2,0.5,0.5,0.5h6.7c0.3,0,0.5-0.2,0.5-0.5v-7h7c0.3,0,0.5-0.2,0.5-0.5v-6.7
			C35.2,19.5,35,19.3,34.7,19.3z"/>
		<g>
			<path class="st1" d="M23.9,0C10.7,0.1,0,10.6,0,23.4c0,12.8,23.8,47.9,23.8,47.9S47.7,35.9,47.7,23C47.7,10.2,37.1-0.1,23.9,0z
				 M23.8,40.8c-9.8,0.1-17.6-7.6-17.6-17c0-9.5,7.9-17.2,17.7-17.3c9.7-0.1,17.6,7.6,17.6,17C41.5,33,33.6,40.8,23.8,40.8z"/>
		</g>
	</g>
</g>
</svg>
