<?xml version="1.0" encoding="utf-8"?>
<!-- Generator: Adobe Illustrator 21.0.0, SVG Export Plug-In . SVG Version: 6.00 Build 0)  -->
<svg version="1.1" id="Layer_1" xmlns="http://www.w3.org/2000/svg" xmlns:xlink="http://www.w3.org/1999/xlink" x="0px" y="0px"
	 viewBox="0 0 203.7 84.9" style="enable-background:new 0 0 203.7 84.9;" xml:space="preserve">
<style type="text/css">
	.st0{fill:#165CA2;}
	.st1{fill:#808083;}
</style>
<g>
	<g>
		<path class="st0" d="M50,49.4c-4.3-0.6-8.5-2.3-11.8-4.8L42,39c2.7,2.1,5.2,3.5,8.2,4.1v-8c-7.2-2-10.8-4.7-10.8-10.6v-0.1
			c0-5.5,4.2-9.2,10.5-9.8v-2.9h5.2v3.1c3.6,0.5,6.6,1.8,9.3,3.7l-3.4,5.9c-2-1.4-4.2-2.4-6.2-3v7.6c7.6,2.1,10.9,5.1,10.9,10.7v0.1
			c0,5.6-4.3,9.2-10.6,9.9v5H50V49.4z M50.2,27.6v-6.8c-2.5,0.3-3.5,1.5-3.5,3.1V24C46.7,25.6,47.4,26.6,50.2,27.6z M54.9,36.3v7
			c2.4-0.4,3.6-1.4,3.6-3.2V40C58.5,38.3,57.6,37.3,54.9,36.3z M1.6,83.3c2.1,2.1,5.6,2.1,7.7,0l21.2-21.2c-3.1-2-5.7-4.6-7.7-7.7
			L1.6,75.5C-0.5,77.7-0.5,81.1,1.6,83.3z M52.2,65.3c-18,0-32.7-14.7-32.7-32.7C19.5,14.7,34.2,0,52.2,0c18,0,32.7,14.7,32.7,32.7
			C84.9,50.7,70.2,65.3,52.2,65.3z M52.2,4.3c-15.6,0-28.3,12.7-28.3,28.3C23.9,48.3,36.6,61,52.2,61s28.3-12.7,28.3-28.3
			C80.5,17.1,67.8,4.3,52.2,4.3z"/>
	</g>
	<g>
		<path class="st1" d="M104.7,18.7h5.5c3.3,0,5.5,1.8,5.5,4.7v0c0,3.2-2.7,4.8-5.8,4.8h-3.6v5.2h-1.7V18.7z M110.1,26.8
			c2.5,0,4.1-1.3,4.1-3.3v0c0-2.1-1.6-3.2-4-3.2h-3.7v6.5H110.1z"/>
		<path class="st1" d="M118.1,22.6h1.6v2.9c0.8-1.8,2.4-3.1,4.5-3v1.8H124c-2.4,0-4.3,1.7-4.3,5v4.4h-1.6V22.6z"/>
		<path class="st1" d="M130.5,32.4c1.5,0,2.6-0.6,3.4-1.5l1,0.9c-1.1,1.2-2.4,2.1-4.5,2.1c-3,0-5.5-2.3-5.5-5.7
			c0-3.2,2.2-5.7,5.2-5.7c3.2,0,5.1,2.6,5.1,5.8c0,0.1,0,0.3,0,0.6h-8.7C126.8,31,128.5,32.4,130.5,32.4z M133.7,27.4
			c-0.2-2-1.3-3.7-3.5-3.7c-1.9,0-3.3,1.6-3.6,3.7H133.7z"/>
		<path class="st1" d="M137,28.1L137,28.1c0-3.1,2.4-5.8,5.6-5.8c2.1,0,3.4,0.9,4.4,1.9l-1.1,1.1c-0.9-0.9-1.8-1.6-3.3-1.6
			c-2.2,0-3.9,1.9-3.9,4.2v0c0,2.4,1.7,4.3,4,4.3c1.4,0,2.5-0.7,3.3-1.6l1,1c-1.1,1.2-2.4,2.1-4.5,2.1C139.4,33.8,137,31.2,137,28.1
			z"/>
		<path class="st1" d="M149.2,18.4h1.9v1.8h-1.9V18.4z M149.3,22.6h1.6v10.9h-1.6V22.6z"/>
		<path class="st1" d="M153.5,28.1L153.5,28.1c0-3.1,2.4-5.8,5.7-5.8c3.3,0,5.7,2.6,5.7,5.7v0c0,3.1-2.4,5.7-5.7,5.7
			C155.9,33.8,153.5,31.2,153.5,28.1z M163.3,28.1L163.3,28.1c0-2.4-1.8-4.3-4.1-4.3c-2.4,0-4,1.9-4,4.2v0c0,2.3,1.7,4.3,4,4.3
			C161.6,32.3,163.3,30.4,163.3,28.1z"/>
		<path class="st1" d="M166.4,32.1l0.8-1.2c1.2,0.9,2.5,1.4,3.8,1.4c1.3,0,2.3-0.7,2.3-1.7v0c0-1.1-1.3-1.5-2.7-1.9
			c-1.7-0.5-3.6-1.1-3.6-3.1v0c0-1.9,1.6-3.1,3.7-3.1c1.3,0,2.8,0.5,3.9,1.2l-0.7,1.2c-1-0.7-2.2-1.1-3.2-1.1
			c-1.3,0-2.1,0.7-2.1,1.6v0c0,1,1.4,1.4,2.8,1.9c1.7,0.5,3.5,1.2,3.5,3.1v0c0,2.1-1.7,3.3-3.9,3.3
			C169.4,33.7,167.7,33.1,166.4,32.1z"/>
		<path class="st1" d="M103.6,51.5L103.6,51.5c0-2.4,1.9-3.6,4.7-3.6c1.4,0,2.4,0.2,3.3,0.5V48c0-1.9-1.2-3-3.2-3
			c-1.3,0-2.3,0.3-3.3,0.8l-0.5-1.3c1.2-0.5,2.4-0.9,4-0.9c1.5,0,2.8,0.4,3.5,1.2c0.8,0.8,1.1,1.8,1.1,3.2v6.7h-1.6v-1.6
			c-0.8,1-2,1.9-3.9,1.9C105.7,54.9,103.6,53.8,103.6,51.5z M111.7,50.7v-1c-0.8-0.2-1.9-0.5-3.2-0.5c-2,0-3.2,0.9-3.2,2.2v0
			c0,1.4,1.3,2.2,2.7,2.2C110,53.6,111.7,52.4,111.7,50.7z"/>
		<path class="st1" d="M115.5,49.3L115.5,49.3c0-3.1,2.4-5.8,5.6-5.8c2.1,0,3.4,0.9,4.4,1.9l-1.1,1.1c-0.9-0.9-1.8-1.6-3.3-1.6
			c-2.2,0-3.9,1.9-3.9,4.2v0c0,2.4,1.7,4.3,4,4.3c1.4,0,2.5-0.7,3.3-1.6l1,1c-1.1,1.2-2.4,2.1-4.5,2.1
			C117.9,54.9,115.5,52.3,115.5,49.3z"/>
		<path class="st1" d="M126.7,49.3L126.7,49.3c0-3.1,2.4-5.8,5.6-5.8c2.1,0,3.4,0.9,4.4,1.9l-1.1,1.1c-0.9-0.9-1.8-1.6-3.3-1.6
			c-2.2,0-3.9,1.9-3.9,4.2v0c0,2.4,1.7,4.3,4,4.3c1.4,0,2.5-0.7,3.3-1.6l1,1c-1.1,1.2-2.4,2.1-4.5,2.1
			C129.1,54.9,126.7,52.3,126.7,49.3z"/>
		<path class="st1" d="M143.5,53.5c1.5,0,2.6-0.6,3.4-1.5l1,0.9c-1.1,1.2-2.4,2.1-4.5,2.1c-3,0-5.5-2.3-5.5-5.7
			c0-3.2,2.2-5.7,5.2-5.7c3.2,0,5.1,2.6,5.1,5.8c0,0.1,0,0.3,0,0.6h-8.7C139.8,52.2,141.5,53.5,143.5,53.5z M146.7,48.6
			c-0.2-2-1.3-3.7-3.5-3.7c-1.9,0-3.3,1.6-3.6,3.7H146.7z"/>
		<path class="st1" d="M149.7,53.3l0.8-1.2c1.2,0.9,2.5,1.4,3.8,1.4c1.3,0,2.3-0.7,2.3-1.7v0c0-1.1-1.3-1.5-2.7-1.9
			c-1.7-0.5-3.6-1.1-3.6-3.1v0c0-1.9,1.6-3.1,3.7-3.1c1.3,0,2.8,0.5,3.9,1.2l-0.7,1.2c-1-0.7-2.2-1.1-3.2-1.1
			c-1.3,0-2.1,0.7-2.1,1.6v0c0,1,1.4,1.4,2.8,1.9c1.7,0.5,3.5,1.2,3.5,3.1v0c0,2.1-1.7,3.3-3.9,3.3C152.7,54.9,151,54.3,149.7,53.3z
			"/>
		<path class="st1" d="M160.7,39.6h1.9v1.8h-1.9V39.6z M160.8,43.8h1.6v10.9h-1.6V43.8z"/>
		<path class="st1" d="M167.3,52.6v2.1h-1.6V39.2h1.6V46c0.9-1.3,2.2-2.4,4.2-2.4c2.6,0,5.2,2.1,5.2,5.7v0c0,3.6-2.6,5.7-5.2,5.7
			C169.5,54.9,168.1,53.8,167.3,52.6z M175,49.3L175,49.3c0-2.6-1.8-4.3-3.8-4.3c-2,0-4,1.7-4,4.2v0c0,2.5,1.9,4.2,4,4.2
			C173.3,53.5,175,51.9,175,49.3z"/>
		<path class="st1" d="M179.3,39.2h1.6v15.4h-1.6V39.2z"/>
		<path class="st1" d="M189,53.5c1.5,0,2.6-0.6,3.4-1.5l1,0.9c-1.1,1.2-2.4,2.1-4.5,2.1c-3,0-5.5-2.3-5.5-5.7c0-3.2,2.2-5.7,5.2-5.7
			c3.2,0,5.1,2.6,5.1,5.8c0,0.1,0,0.3,0,0.6h-8.7C185.4,52.2,187.1,53.5,189,53.5z M192.2,48.6c-0.2-2-1.3-3.7-3.5-3.7
			c-1.9,0-3.3,1.6-3.6,3.7H192.2z"/>
		<path class="st1" d="M195.3,53.3l0.8-1.2c1.2,0.9,2.5,1.4,3.8,1.4c1.3,0,2.3-0.7,2.3-1.7v0c0-1.1-1.3-1.5-2.7-1.9
			c-1.7-0.5-3.6-1.1-3.6-3.1v0c0-1.9,1.6-3.1,3.7-3.1c1.3,0,2.8,0.5,3.9,1.2l-0.7,1.2c-1-0.7-2.2-1.1-3.2-1.1
			c-1.3,0-2.1,0.7-2.1,1.6v0c0,1,1.4,1.4,2.8,1.9c1.7,0.5,3.5,1.2,3.5,3.1v0c0,2.1-1.7,3.3-3.9,3.3
			C198.3,54.9,196.5,54.3,195.3,53.3z"/>
	</g>
</g>
</svg>
